<svg height="512" viewBox="0 0 52 56" width="512" xmlns="http://www.w3.org/2000/svg"><g id="Page-1" fill="none" fill-rule="evenodd"><g id="019---Oil-Can" fill="rgb(0,0,0)" fill-rule="nonzero"><path id="Shape" d="m20.5 45c3.44869.1296935 6.3538246-2.5519692 6.5-6 0-2.35-3.62-9.27-6.06-12.79-.1049211-.1359941-.2682818-.2139617-.44-.21-.169316-.0057646-.3304427.0729252-.43.21-2.45 3.52-6.07 10.44-6.07 12.79.1461754 3.4480308 3.05131 6.1296935 6.5 6zm-3.5-7c.5522847 0 1 .4477153 1 1 .1564335 1.2324358 1.2632846 2.1179166 2.5 2 .5522847 0 1 .4477153 1 1s-.4477153 1-1 1c-2.3447389.130965-4.3551614-1.6560772-4.5-4 0-.5522847.4477153-1 1-1z"/><path id="Shape" d="m7 24v23c0 1.1045695.8954305 2 2 2h23c1.1045695 0 2-.8954305 2-2v-23c0-1.1045695-.8954305-2-2-2h-23c-1.1045695 0-2 .8954305-2 2zm11.42 1.07c.4808502-.6701831 1.2551592-1.0676194 2.08-1.0676194s1.5991498.3974363 2.08 1.0676194c1.89 2.73 6.42 10.6 6.42 13.93-.1468757 4.5523805-3.9470791 8.1290425-8.5 8-4.5529209.1290425-8.3531243-3.4476195-8.5-8 0-3.33 4.53-11.2 6.42-13.93z"/><path id="Shape" d="m40.17 11.06-4.23-4.23c-.3751365-.37555409-.8841815-.58657331-1.415-.58657331s-1.0398635.21101922-1.415.58657331l-.93.93 7.07 7.07.93-.93c.3773061-.3768648.5884796-.888807.5866019-1.4220831-.0018778-.5332761-.2166512-1.0437185-.5966019-1.4179169z"/><path id="Shape" d="m19 1h-16c-1.65685425 0-3 1.34314575-3 3v48c0 2.209139 1.790861 4 4 4h33c2.209139 0 4-1.790861 4-4v-30.51c-.0108004-1.3096508-.5350322-2.5627802-1.46-3.49l-9.48-9.48c-.9320279-.96163182-2.2108604-1.50918828-3.55-1.52h-3.51c-.5522847 0-1-.44771525-1-1v-2c0-1.65685425-1.3431458-3-3-3zm-17 9v-5c0-1.1045695.8954305-2 2-2h14c1.1045695 0 2 .8954305 2 2v5c0 1.1045695-.8954305 2-2 2h-14c-1.1045695 0-2-.8954305-2-2zm1 6c0-.5522847.44771525-1 1-1h2c.55228475 0 1 .4477153 1 1s-.44771525 1-1 1h-2c-.55228475 0-1-.4477153-1-1zm29 4c2.209139 0 4 1.790861 4 4v23c0 2.209139-1.790861 4-4 4h-23c-2.209139 0-4-1.790861-4-4v-23c0-2.209139 1.790861-4 4-4zm-5-5c.5522847 0 1 .4477153 1 1s-.4477153 1-1 1h-17c-.55228475 0-1-.4477153-1-1s.44771525-1 1-1z"/><path id="Shape" d="m50 0c-3.750646-.02165126-7.3531339 1.46257377-10 4.12l-2 2 2.88 2.88 2-2c1.8755794-1.9134861 4.4405981-2.99425241 7.12-3 1.1045695 0 2-.8954305 2-2s-.8954305-2-2-2z"/></g></g></svg>