<?xml version="1.0"?>
<svg xmlns="http://www.w3.org/2000/svg" viewBox="0 0 512 512" width="512" height="512"><g id="Wheat_Bag" data-name="Wheat Bag"><g id="Glyph"><path d="M356,338.757c-5.423-20.83-6.8-28.788,0-40-5.42-20.826-6.8-28.792,0-40-5.3-20.54-6.674-28.31-.4-39.263-2.407-7.789-5.825-14.418-10.1-18.75l-21.84-42.007c-4.8-9.412-18.89-1.469-14.2,7.38l18.486,35.558a82.473,82.473,0,0,0-13.5,9.366c-9.572-14.545-24.5-22.578-30.973-25.542l-20.854-40.111c-4.8-9.41-18.89-1.469-14.2,7.381l20.854,40.11c-1.292,7-3.288,23.8,3.091,39.968a79.354,79.354,0,0,0-15.419,5.693l-18.466-35.52c-4.8-9.411-18.89-1.469-14.2,7.38L246.1,252.36c1.561,8.931,7.886,19.5,16.77,28.855a75.272,75.272,0,0,0-8.821,3.879,8,8,0,0,0-3.388,10.725,90.1,90.1,0,0,0,20.8,25.434,7.994,7.994,0,0,0-2.344,10.056,90.077,90.077,0,0,0,20.795,25.434,8,8,0,0,0-2.344,10.056,90.084,90.084,0,0,0,20.8,25.434,8,8,0,0,0-2.345,10.056c.6,1.168,14.969,28.7,41.664,37.136,18.749,5.922,42.155-3.543,52.317-7.425C400,432,344,400,356,338.757Z"/><path d="M505.281,264.113A90.1,90.1,0,0,0,512,231.954,8,8,0,0,0,504.047,224a64.591,64.591,0,0,0-10.936,1.065c4.235-12.516,5.636-24.97,2.932-33.72V144c.068-10.566-16.078-10.019-16,0v40.076a82.478,82.478,0,0,0-16.3,2.081c-1.784-17.32-11.321-31.332-15.7-36.949V104c.069-10.565-16.078-10.02-16,0v45.208c-4.374,5.61-13.893,19.6-15.694,36.887a79.363,79.363,0,0,0-16.306-2.062V144c.069-10.566-16.078-10.019-16,0v47.291c-2.735,8.643-2,20.938,1.568,33.337A75.192,75.192,0,0,0,376,224a8,8,0,0,0-7.953,7.953,90.076,90.076,0,0,0,6.719,32.159,8,8,0,0,0-6.719,7.841,90.076,90.076,0,0,0,6.719,32.159,7.994,7.994,0,0,0-6.719,7.841,90.08,90.08,0,0,0,6.719,32.159,7.994,7.994,0,0,0-6.719,7.841c-.008,1.312.04,32.371,19.836,52.167,13.9,13.9,33.356,18.064,44.164,19.307V504c-.093,10.2,16.091,10.265,16,0V423.423c10.816-1.249,30.235-5.416,44.12-19.3,19.8-19.8,19.844-50.855,19.837-52.167a8,8,0,0,0-6.719-7.841A90.1,90.1,0,0,0,512,311.954a8,8,0,0,0-6.719-7.841A90.1,90.1,0,0,0,512,271.954,8,8,0,0,0,505.281,264.113Z"/><path d="M375.872,457.32c-43.228,3.409-89.214-30.9-86.621-61.185-14.113-15.664-19.39-22.681-18.452-35.49-14.114-15.664-19.389-22.681-18.451-35.49-16.028-17.543-25.627-32.262-13.079-48.231-6.886-11.557-18.475-37.132-26.11-52.924H18.9c-15.22,92.95-11.2,179.829-3.507,214.49C13.41,442.21,0,459.59,0,464c0,19.03,19.8,31.31,37.44,24.37,124.637,27.01,212.257,31.565,343.4,6.113a18.792,18.792,0,0,0,13.119-27.108h0A18.742,18.742,0,0,0,375.872,457.32Z"/><path d="M389.288,120.455C352.376,78.928,265.657,0,224,0,176.191,0,84.183,89.273,52.2,128H24.507C11.618,128,.642,137.958.028,150.832A23.906,23.906,0,0,0,6.131,168a23.982,23.982,0,0,0,15.5,39.882l-.021.118H207.219c-1.221-15.061,13.039-26.052,26.645-25.172a7.187,7.187,0,0,0,6.766-10.367l-6.4-12.311c-14.665-27.907,28.292-49.99,42.588-22.142,3.7,7.212,12.36,20.351,19.992,10.577,9.643-12.351,31.789-15.259,41.047,2.771.072.141.147.285.224.434,7.671,14.807,30.073,9.292,29.965-7.384,0-.121,0-.24,0-.356A23.638,23.638,0,0,1,389.288,120.455ZM152,112a8,8,0,1,1,8-8A8,8,0,0,1,152,112Zm32-32a8,8,0,1,1,8-8A8,8,0,0,1,184,80Zm16,32a8,8,0,1,1,8-8A8,8,0,0,1,200,112Zm8-64a8,8,0,1,1,8-8A8,8,0,0,1,208,48Zm16,24a8,8,0,1,1,8-8A8,8,0,0,1,224,72Zm16,40a8,8,0,1,1,8-8A8,8,0,0,1,240,112Zm8-56a8,8,0,1,1,8-8A8,8,0,0,1,248,56Zm16,32a8,8,0,1,1,8-8A8,8,0,0,1,264,88Zm32,24a8,8,0,1,1,8-8A8,8,0,0,1,296,112Z"/></g></g></svg>
