<?xml version="1.0" encoding="iso-8859-1"?>
<!-- Generator: Adobe Illustrator 19.0.0, SVG Export Plug-In . SVG Version: 6.00 Build 0)  -->
<svg version="1.1" id="Capa_1" xmlns="http://www.w3.org/2000/svg" xmlns:xlink="http://www.w3.org/1999/xlink" x="0px" y="0px"
	 viewBox="0 0 512 512" style="enable-background:new 0 0 512 512;" xml:space="preserve">
<g>
	<g>
		<path d="M418.528,396.222l-54.507-65.391H392c5.61,0,10.752-3.135,13.33-8.115c2.563-4.98,2.153-10.972-1.084-15.557
			l-68.247-96.327H347c5.683,0,10.869-3.208,13.418-8.291c2.534-5.083,1.992-11.162-1.421-15.703l-91-119.999
			c-5.654-7.559-18.34-7.559-23.994,0l-90.999,119.999c-3.413,4.541-3.955,10.62-1.421,15.703c2.549,5.083,7.734,8.291,13.418,8.291
			h11.001l-68.247,96.327c-3.237,4.585-3.647,10.576-1.084,15.557c2.578,4.98,7.72,8.115,13.33,8.115h27.979l-54.507,65.391
			c-3.721,4.482-4.526,10.708-2.051,15.967c2.461,5.273,7.764,8.643,13.579,8.643H407c5.815,0,11.118-3.369,13.579-8.643
			C423.055,406.93,422.249,400.705,418.528,396.222z"/>
	</g>
</g>
<g>
	<g>
		<path d="M129.904,224.015c-1.963-2.461-3.691-5.142-5.142-8.027c-7.676-15.425-6.035-33.472,4.263-47.168l84.727-112.975
			L176.998,5.839c-5.654-7.559-18.34-7.559-23.994,0L63.005,126.838c-3.413,4.541-3.955,10.62-1.421,15.703
			c2.549,5.083,7.734,8.291,13.418,8.291h7.983l-79.512,95.39c-3.721,4.482-4.526,10.708-2.051,15.967
			c2.461,5.273,7.764,8.643,13.579,8.643h47.93L2.287,367.877c-2.901,4.629-3.047,10.459-0.41,15.22
			c2.651,4.775,7.676,7.734,13.125,7.734H62.93c1.738-4.911,4.03-9.637,7.458-13.77l21.636-25.957
			c-4.893-3.882-9.009-8.818-11.997-14.604c-7.734-15.029-6.489-32.886,3.223-46.641L129.904,224.015z"/>
	</g>
</g>
<g>
	<g>
		<path d="M449.068,270.83h47.93c5.815,0,11.118-3.369,13.579-8.643c2.476-5.259,1.67-11.484-2.051-15.967l-79.512-95.39h7.983
			c5.685,0.002,10.871-3.206,13.42-8.289c2.534-5.083,1.992-11.162-1.421-15.703L358.997,5.839c-5.654-7.559-18.34-7.559-23.994,0
			L298.251,55.84l84.739,112.995c10.283,13.682,11.924,31.729,4.277,47.095c-1.465,2.915-3.193,5.61-5.171,8.071l46.626,65.815
			c9.741,13.799,10.986,31.655,3.281,46.626c-3.003,5.815-7.134,10.767-12.026,14.663l21.592,25.913
			c3.442,4.149,5.746,8.89,7.489,13.813h47.941c5.449,0,10.474-2.959,13.125-7.734c2.637-4.761,2.49-10.591-0.41-15.22
			L449.068,270.83z"/>
	</g>
</g>
<g>
	<g>
		<path d="M362,450.83v16c0,8.291,6.709,15,15,15s15-6.709,15-15v-16H362z"/>
	</g>
</g>
<g>
	<g>
		<path d="M120.001,450.83v16c0,8.291,6.709,15,15,15s15-6.709,15-15v-16H120.001z"/>
	</g>
</g>
<g>
	<g>
		<path d="M241.001,450.83v46c0,8.291,6.709,15,15,15c8.291,0,15-6.709,15-15v-46H241.001z"/>
	</g>
</g>
<g>
</g>
<g>
</g>
<g>
</g>
<g>
</g>
<g>
</g>
<g>
</g>
<g>
</g>
<g>
</g>
<g>
</g>
<g>
</g>
<g>
</g>
<g>
</g>
<g>
</g>
<g>
</g>
<g>
</g>
</svg>
