<svg id="Layer_1_1_" enable-background="new 0 0 64 64" height="512" viewBox="0 0 64 64" width="512" xmlns="http://www.w3.org/2000/svg"><path d="m51.052 58.316c1.214 3.642 3.837 3.684 3.948 3.684h2c.553 0 1-.448 1-1v-3h-2v2h-.973c-.055-.003-1.341-.104-2.079-2.317-.603-1.807 1.342-6.174 2.628-9.064.581-1.305 1.082-2.433 1.372-3.303 1.06-3.179.086-11.104.044-11.44-.027-.221-.128-.426-.285-.583l-1.621-1.622.895-4.475c.08-.4-.091-.808-.431-1.032l-3.813-2.509-.015-2.293c-.001-.222-.077-.438-.215-.612-.209-.266-5.163-6.529-8.169-8.009-.822-.405-1.978-.841-3.314-1.345-2.96-1.116-7.433-2.802-8.295-4.501-.797-1.573.109-2.532.58-2.895h1.691v2h2v-3c0-.552-.447-1-1-1h-3c-.179 0-.354.048-.508.139-1.177.693-3.014 2.769-1.546 5.662.531 1.047 1.66 1.948 3.083 2.752l17.928 45.024c-.166 1.028-.164 1.963.095 2.739zm-15.357-46.474c1.184.505 2.429.975 3.624 1.425 1.289.486 2.401.905 3.138 1.268.905.446 2.129 1.528 3.346 2.76.387 1.288 1.197 4.273 1.197 5.705 0 1.519-.689 2.273-.707 2.293-.204.204-.311.486-.291.774s.163.554.393.729l3.507 2.667-.771 4.358c-.05.28.03.568.206.792.175.224.445.363.729.381.043.003 1.062.083 2.099 1.192 1.088 1.162 2.787 3.939 3.278 4.756-.005 1.51-.107 2.891-.39 3.742-.26.778-.743 1.865-1.303 3.123-.665 1.494-1.363 3.067-1.91 4.581z"/><path d="m26.431 20.627-2.035-4.554c-.159-.355-.511-.587-.9-.592-.37-.037-.747.217-.915.569l-.643 1.344-1.188-2.929-1.854.752 1.307 3.221-1.772-.46c-.376-.098-.771.03-1.019.326s-.304.709-.142 1.06l2.143 4.661c.101.219.276.394.495.493l3.382 1.532 10.176 25.08-1.48.54c-.293.107-.52.344-.612.643-.093.298-.041.622.14.876l5.8 8.162c.192.27.499.421.815.421.117 0 .236-.021.351-.063.425-.159.689-.584.645-1.035l-.982-9.919c-.03-.308-.201-.583-.463-.748s-.584-.199-.875-.093l-1.457.531-10.25-25.262 1.362-3.809c.086-.244.076-.511-.029-.747z"/><path d="m21.374 52.313c-.093.298-.041.622.14.876l5.8 8.162c.192.27.499.421.815.421.117 0 .236-.021.351-.063.425-.159.689-.584.645-1.035l-.982-9.919c-.03-.308-.201-.583-.463-.748-.261-.165-.584-.199-.875-.093l-1.457.531-10.25-25.262 1.362-3.809c.087-.243.077-.51-.028-.745l-2.035-4.554c-.159-.355-.511-.587-.9-.592-.378-.037-.747.217-.915.569l-.643 1.344-1.188-2.929-1.854.752 1.307 3.221-1.772-.46c-.375-.098-.771.03-1.019.326s-.304.709-.142 1.06l2.143 4.661c.101.219.276.394.495.493l3.382 1.532 10.176 25.08-1.48.54c-.294.105-.52.342-.613.641z"/></svg>