<svg id="_x33_0" enable-background="new 0 0 64 64" height="512" viewBox="0 0 64 64" width="512" xmlns="http://www.w3.org/2000/svg"><g><circle cx="32" cy="34" r="1"/><path d="m29 15h6v16h-6z"/><path d="m27 29.755v-13.51l-7.505 6.755zm-3-7.755c.552 0 1 .448 1 1s-.448 1-1 1-1-.448-1-1 .448-1 1-1z"/><path d="m35.382 13 1.401-2.803-4.783-4.783-4.783 4.783 1.401 2.803z"/><path d="m5 23.097v-.194c0-6.711 3.189-12.987 8.764-17.341-.218-.615-.406-1.245-.537-1.897-6.344 4.283-10.227 11.517-10.227 19.228v.215c0 7.71 3.883 14.945 10.228 19.227.131-.651.319-1.281.537-1.897-5.576-4.354-8.765-10.63-8.765-17.341z"/><path d="m25.5 14.904c-4.693-.524-8.755-3.404-10.907-7.454-4.84 3.955-7.593 9.525-7.593 15.453v.194c0 5.928 2.753 11.498 7.593 15.453 2.151-4.05 6.214-6.93 10.907-7.455l-8.995-8.095z"/><path d="m29 34c0-.352.072-.686.184-1h-1.184c-.552 0-1 .449-1 1s.448 1 1 1h1.184c-.112-.314-.184-.648-.184-1z"/><path d="m57 23.097v-.194c0-5.928-2.753-11.498-7.593-15.453-2.151 4.05-6.214 6.93-10.907 7.455l8.995 8.095-8.995 8.096c4.693.525 8.756 3.404 10.907 7.455 4.84-3.956 7.593-9.526 7.593-15.454z"/><path d="m29 61h6v-24h-6zm3-22c.552 0 1 .448 1 1s-.448 1-1 1-1-.448-1-1 .448-1 1-1zm0 6c.552 0 1 .448 1 1s-.448 1-1 1-1-.448-1-1 .448-1 1-1zm0 6c.552 0 1 .448 1 1s-.448 1-1 1-1-.448-1-1 .448-1 1-1zm0 6c.552 0 1 .448 1 1s-.448 1-1 1-1-.448-1-1 .448-1 1-1z"/><path d="m37 16.245v13.509l7.505-6.754zm3 7.755c-.552 0-1-.448-1-1s.448-1 1-1 1 .448 1 1-.448 1-1 1z"/><path d="m50.772 3.666c-.131.651-.319 1.281-.537 1.897 5.576 4.353 8.765 10.629 8.765 17.34v.194c0 6.711-3.189 12.987-8.764 17.341.218.615.406 1.245.537 1.897 6.344-4.283 10.227-11.517 10.227-19.228v-.215c0-7.71-3.883-14.944-10.228-19.226z"/><path d="m36 33h-1.184c.112.314.184.648.184 1s-.072.686-.184 1h1.184c.552 0 1-.449 1-1s-.448-1-1-1z"/></g></svg>