<?xml version="1.0" encoding="iso-8859-1"?>
<!-- Generator: Adobe Illustrator 19.0.0, SVG Export Plug-In . SVG Version: 6.00 Build 0)  -->
<svg version="1.1" id="Capa_1" xmlns="http://www.w3.org/2000/svg" xmlns:xlink="http://www.w3.org/1999/xlink" x="0px" y="0px"
	 viewBox="0 0 512 512" style="enable-background:new 0 0 512 512;" xml:space="preserve">
<g>
	<g>
		<path d="M271,120h16c8.291,0,15-6.709,15-15s-6.709-15-15-15h-62c-8.291,0-15,6.709-15,15s6.709,15,15,15h16v30h-31v122h92V150
			h-31V120z"/>
	</g>
</g>
<g>
	<g>
		<path d="M484.696,147.012C483.157,131.616,470.34,120,454.856,120H362c-16.538,0-30,13.462-30,30v152h166.478L484.696,147.012z"/>
	</g>
</g>
<g>
	<g>
		<polygon points="501.178,332 332,332 332,422 509.286,422 		"/>
	</g>
</g>
<g>
	<g>
		<path d="M511.91,452H332v30c0,16.538,13.462,30,30,30h120c16.538,0,30-13.462,30-30v-28.096L511.91,452z"/>
	</g>
</g>
<g>
	<g>
		<path d="M180,0H60C43.431,0,30,13.431,30,30c0,16.567,13.431,30,30,30v30h120V60c16.569,0,30-13.433,30-30
			C210,13.431,196.569,0,180,0z"/>
	</g>
</g>
<g>
	<g>
		<path d="M452,0H332c-16.569,0-30,13.431-30,30c0,16.567,13.431,30,30,30v30h120V60c16.569,0,30-13.433,30-30
			C482,13.431,468.569,0,452,0z"/>
	</g>
</g>
<g>
	<g>
		<path d="M0.09,452L0,453.904V482c0,16.538,13.462,30,30,30h120c16.538,0,30-13.462,30-30v-30H0.09z"/>
	</g>
</g>
<g>
	<g>
		<path d="M150,120H57.144c-15.483,0-28.301,11.616-29.839,27.012L13.522,302H180V150C180,133.462,166.538,120,150,120z"/>
	</g>
</g>
<g>
	<g>
		<polygon points="10.822,332 2.714,422 180,422 180,332 		"/>
	</g>
</g>
<g>
	<g>
		<rect x="210" y="302" width="92" height="30"/>
	</g>
</g>
<g>
</g>
<g>
</g>
<g>
</g>
<g>
</g>
<g>
</g>
<g>
</g>
<g>
</g>
<g>
</g>
<g>
</g>
<g>
</g>
<g>
</g>
<g>
</g>
<g>
</g>
<g>
</g>
<g>
</g>
</svg>
