<svg height="425pt" viewBox="-63 0 425 425.64162" width="425pt" xmlns="http://www.w3.org/2000/svg"><path d="m259.8125 193.527344c-41.113281-41.050782-103.765625-51.453125-155.9375-25.886719-2.636719 1.289063-5.769531 1.03125-8.160156-.671875l-27.390625-19.5625-46.984375 46.984375 19.550781 27.378906c1.714844 2.390625 1.976563 5.53125.679687 8.175781-30.457031 62.253907-9.207031 137.457032 49.328126 174.566407 58.535156 37.109375 135.613281 24.246093 178.925781-29.859375 43.3125-54.105469 38.992187-132.132813-10.027344-181.125zm-96.042969 216.167968c-12.894531.007813-25.710937-2.046874-37.957031-6.085937l5.023438-15.203125c14.359374 4.730469 29.566406 6.304688 44.589843 4.617188l1.792969 15.898437c-4.464844.507813-8.953125.769531-13.449219.773437zm84.722657-35.144531c-6.027344 6.019531-12.671876 11.382813-19.824219 16l-8.6875-13.4375c6.207031-4.015625 11.96875-8.675781 17.191406-13.90625 27.273437-27.273437 37.214844-67.398437 25.824219-104.25-11.386719-36.851562-42.238282-64.375-80.144532-71.5l2.945313-15.730469c43.742187 8.21875 79.34375 39.972657 92.488281 82.496094 13.148438 42.519532 1.679688 88.824219-29.792968 120.296875zm0 0"/><path d="m148.523438 45.230469 2.265624 15.53125 14.574219-5.808594c1.902344-.757813 4.019531-.757813 5.917969 0l14.578125 5.808594 2.265625-15.53125c.292969-2.023438 1.351562-3.859375 2.957031-5.125l12.320313-9.722657-12.320313-9.71875c-1.605469-1.269531-2.667969-3.109374-2.957031-5.136718l-2.265625-15.527344-14.578125 5.816406c-1.898438.75-4.015625.75-5.917969 0l-14.574219-5.816406-2.265624 15.527344c-.292969 2.027344-1.351563 3.867187-2.960938 5.136718l-12.320312 9.71875 12.320312 9.722657c1.605469 1.265625 2.667969 3.101562 2.960938 5.125zm0 0"/><path d="m43.164062 160.007812-19.679687-15.761718c-6.308594-5.035156-8.742187-13.511719-6.070313-21.128906 2.675782-7.621094 9.875-12.714844 17.949219-12.703126h105.917969c19.34375-.019531 35.019531-15.695312 35.042969-35.039062v-12.960938h-16v12.960938c-.011719 10.511719-8.527344 19.03125-19.042969 19.039062h-105.917969c-14.875-.023437-28.140625 9.363282-33.066406 23.398438-4.929687 14.035156-.441406 29.652344 11.1875 38.929688l19.679687 15.761718zm0 0"/></svg>