<svg height="512" viewBox="0 0 512 512" width="512" xmlns="http://www.w3.org/2000/svg"><g id="Sickle"><g id="Glyph"><path d="m428.413 46.262c-114.387-104.852-301.608-20.043-294.762 137.384a174.745 174.745 0 0 0 51.129 116.554l-10.932 11.925a24 24 0 0 0 -36.854 29.933l-100.494 109.632c-21.274 23.21-4.463 60.31 26.523 60.31a35.915 35.915 0 0 0 26.553-11.658l101.562-110.795c9.86 2.2 21.884-1.761 25.465-5.669a23.985 23.985 0 0 0 -1.474-33.908l23.871-26.038a40.053 40.053 0 0 0 3.04-50.3c-32.785-45.442-31.465-108.12 3.07-145.794 42.571-46.443 113.56-50.9 158.242-9.943 45.532 41.737 60.244 126.644 18.75 172.035-7.261 8.017 4.6 18.654 11.719 10.894 70.421-76.824 75.818-180.105-5.408-254.562z"/></g></g></svg>