<svg id="Solid" height="512" viewBox="0 0 512 512" width="512" xmlns="http://www.w3.org/2000/svg"><path d="m96 324.492 80-22.4v-28.812a7.982 7.982 0 0 0 -10.154-7.739l-11.058 3.1 4.9 17.165-15.384 4.4-4.928-17.246-16.338 4.574 4.65 16.276-15.384 4.4-4.674-16.357-5.8 1.623a8.035 8.035 0 0 0 -5.83 7.724z"/><path d="m71.107 371.444 176.893-49.512v-23.384l-182.353 51.058z"/><path d="m328.01 192-.01-48h-144v48zm-112.01-16h-16v-16h16zm32 0h-16v-16h16zm32 0h-16v-16h16zm32 0h-16v-16h16z"/><path d="m336 273.28v28.812l80 22.4v-33.292a8.033 8.033 0 0 0 -5.83-7.734l-5.8-1.625-4.678 16.359-15.384-4.4 4.65-16.276-16.338-4.574-4.928 17.25-15.384-4.4 4.9-17.164-11.049-3.094a7.911 7.911 0 0 0 -6.988 1.305 7.993 7.993 0 0 0 -3.171 6.433z"/><path d="m226.246 128h59.508l-4-16h-51.508z"/><path d="m253.843 280.3a8 8 0 0 1 4.314 0l61.843 17.312v-24.332a23.893 23.893 0 0 1 5.231-15.011l-19.887-29.831a8.005 8.005 0 0 1 -1.344-4.438v-16h-96v16a8.005 8.005 0 0 1 -1.344 4.438l-19.887 29.831a23.893 23.893 0 0 1 5.231 15.011v24.332zm.588-32.141a8.006 8.006 0 0 1 3.138 0l40 8-3.138 15.69-38.431-7.691-38.431 7.687-3.138-15.69z"/><path d="m230.138 445.44c15.468 0 23.775 5.982 30.451 10.788 6.03 4.342 10.794 7.772 21.1 7.772s15.06-3.43 21.087-7.771c6.672-4.806 14.976-10.789 30.439-10.789s23.781 5.981 30.459 10.788c6.033 4.342 10.8 7.772 21.112 7.772s15.093-3.431 21.132-7.774c4.206-3.026 9.065-6.515 15.949-8.686l15.142-60.567-173.009-48.426v101.453h-16v-101.453l-173.01 48.426 17.957 71.827c1.208-.8 2.409-1.663 3.664-2.567 6.674-4.807 14.98-10.789 30.446-10.789s23.772 5.982 30.446 10.789c6.028 4.337 10.79 7.767 21.097 7.767s15.066-3.43 21.1-7.771c6.666-4.807 14.972-10.789 30.438-10.789zm81.862-69.44h16v16h-16zm-32-16h16v16h-16zm-64 0h16v16h-16zm-32 16h16v16h-16z"/><path d="m446.353 349.606-182.353-51.058v23.384l176.893 49.512z"/><path d="m118.646 262.141-6.954-24.339-15.384 4.396 6.93 24.257z"/><path d="m128.308 234.198 6.676 23.368 15.409-4.314-6.701-23.45z"/><path d="m144 160h24v16h-24z"/><path d="m296 64h-32v-16h16v-16h-16v-16h-16v16h-16v16h16v16h-32v16h32v16h16v-16h32z"/><path d="m344 160h24v16h-24z"/><path d="m377.016 257.567 6.676-23.369-15.384-4.396-6.701 23.45z"/><path d="m415.692 242.198-15.384-4.396-6.954 24.339 15.408 4.314z"/></svg>