<svg id="Capa_1" enable-background="new 0 0 512 512" height="512" viewBox="0 0 512 512" width="512" xmlns="http://www.w3.org/2000/svg"><g id="XMLID_2009_"><path id="XMLID_2024_" d="m108.605 194.525c-39.631-32.002-60.144-83.26-63.516-126.153-.537-6.831-6.069-10.7-11.659-10.7-4.086 0-8.204 2.068-10.424 6.558-40.289 81.478-24.211 193.422 21.491 238.105 10.78-32.428 28.306-64.642 51.14-92.861 4.208-5.201 8.536-10.177 12.968-14.949z"/><path id="XMLID_2023_" d="m488.993 64.23c-2.22-4.49-6.338-6.558-10.424-6.558-5.59 0-11.121 3.869-11.658 10.7-3.372 42.893-23.882 94.154-63.513 126.156 4.431 4.771 8.759 9.747 12.966 14.946 22.834 28.218 40.36 60.433 51.14 92.861 45.7-44.684 61.778-156.627 21.489-238.105z"/><path id="XMLID_2022_" d="m322.982 170.665v171.725h123.303c-11.899-65.911-59.719-139.417-123.303-171.725z"/><path id="XMLID_2021_" d="m189.018 342.39v-171.726c-63.583 32.308-111.404 105.815-123.303 171.726z"/><path id="XMLID_2014_" d="m450.834 372.974h-389.668c-7.004 0-12.682 5.678-12.682 12.682v55.989c0 7.004 5.678 12.682 12.682 12.682h389.667c7.004 0 12.682-5.678 12.682-12.682v-55.989c.001-7.004-5.677-12.682-12.681-12.682zm-356.475 53.862c-7.237 0-13.104-5.903-13.104-13.185s5.867-13.185 13.104-13.185 13.104 5.903 13.104 13.185-5.867 13.185-13.104 13.185zm80.821 0c-7.237 0-13.104-5.903-13.104-13.185s5.867-13.185 13.104-13.185 13.104 5.903 13.104 13.185-5.867 13.185-13.104 13.185zm80.82 0c-7.237 0-13.104-5.903-13.104-13.185s5.867-13.185 13.104-13.185 13.104 5.903 13.104 13.185-5.867 13.185-13.104 13.185zm80.82 0c-7.237 0-13.104-5.903-13.104-13.185s5.867-13.185 13.104-13.185 13.104 5.903 13.104 13.185-5.866 13.185-13.104 13.185zm80.821 0c-7.237 0-13.104-5.903-13.104-13.185s5.867-13.185 13.104-13.185 13.104 5.903 13.104 13.185-5.867 13.185-13.104 13.185z"/><path id="XMLID_2010_" d="m292.398 158.817c-11.789-3.188-23.953-4.929-36.398-4.929-12.444 0-24.608 1.741-36.397 4.929v183.573h72.795zm-36.398 142.372c-7.237 0-13.104-5.903-13.104-13.185s5.867-13.185 13.104-13.185 13.104 5.903 13.104 13.185-5.867 13.185-13.104 13.185zm0-78.557c-7.237 0-13.104-5.903-13.104-13.185s5.867-13.185 13.104-13.185 13.104 5.903 13.104 13.185-5.867 13.185-13.104 13.185z"/></g></svg>