<svg id="Solid" height="512" viewBox="0 0 512 512" width="512" xmlns="http://www.w3.org/2000/svg"><path d="m71.736 395.009v16l29.254 29.254h16l127.765-127.763-45.255-45.255zm42.912 13.657-11.314-11.314 96.166-96.166 11.314 11.314z"/><path d="m61.393 426.607h16v32h-16z" transform="matrix(.707 -.707 .707 .707 -292.646 178.705)"/><path d="m268.226 175.891-74.83 8.315-5.479 10.957 43.597 17.44z"/><path d="m150.291 293.826-76.77 20.203-30.57 30.569 36.365 20.203z"/><path d="m167.402 469.049 30.569-30.57 20.203-76.77-70.975 70.975z"/><path d="m316.837 324.083 10.957-5.479 8.315-74.83-36.712 36.712z"/><path d="m346.585 120.173 45.242 45.242a373.046 373.046 0 0 0 82.914-128.156 373.046 373.046 0 0 0 -128.156 82.914z"/><path d="m210.814 255.931 45.255 45.255 101.823-101.823-45.255-45.255zm45.255 11.314-11.314-11.314 67.882-67.882 11.314 11.314z"/><path d="m344.236 127.765h15.998v64h-15.998z" transform="matrix(.707 -.707 .707 .707 -9.803 295.862)"/></svg>