<svg id="_x33_0" enable-background="new 0 0 64 64" height="512" viewBox="0 0 64 64" width="512" xmlns="http://www.w3.org/2000/svg"><path d="m61.638 1.068c-.18.07-18.038 6.989-28.817 8.949l-2.613.475 5.653 3.392c-1.504.655-3.815 1.574-6.104 2.147l-2.817.704 8.984 3.993c-.115.087-.234.169-.338.273l-2.612 2.612c-1.938-1.685-4.382-2.613-6.974-2.613-2.846 0-5.522 1.108-7.536 3.121l-11.989 11.99c-2.241 2.241-3.475 5.22-3.475 8.389 0 2.984 1.107 5.792 3.105 7.981l-4.105 4.105c-.645.645-1 1.503-1 2.414s.355 1.769 1 2.414l.585.586c.645.645 1.502 1 2.415 1s1.77-.355 2.414-1l27.052-27.052c.176.027.353.052.534.052.913 0 1.77-.355 2.414-1l5.586-5.586c.103-.103.186-.22.274-.334l3.991 8.98.705-2.818c.571-2.286 1.491-4.598 2.147-6.104l3.392 5.653.475-2.613c1.959-10.778 8.878-28.636 8.948-28.816l.824-2.118zm-15.052 18.932-3.586 3.586-2.585-2.586 3.585-3.586zm-12.586 12.586-2.585-2.586c-.268-.268-.415-.622-.415-1s.147-.732.414-1l2.586-2.586zm-29 11.914c0-2.635 1.026-5.111 2.889-6.975l11.989-11.99c1.636-1.635 3.81-2.535 6.122-2.535 2.058 0 4.004.717 5.56 2.026l-1.56 1.56c-.645.646-1 1.503-1 2.414 0 .181.025.358.052.534l-21.533 21.533c-1.622-1.811-2.519-4.117-2.519-6.567zm4 7.914 2.586 2.586-1.586 1.586-2.586-2.586zm-3 8.172c-.533.535-1.465.535-2 0l-.585-.586c-.268-.268-.415-.622-.415-1s.147-.732.414-1l2.586-2.586 2.586 2.586zm7-7-2.586-2.586 19.586-19.586 2.585 2.586zm23-21.001v-9.171l1-1c.267-.268.622-.414 1-.414v8.586zm5.586-5.585-1.586 1.586v-5.172l1.585 1.586c.268.268.415.622.415 1s-.147.732-.414 1zm10.949 1.28-2.614-4.356-.815 1.629c-.065.131-1.279 2.572-2.292 5.564l-2.62-5.896 5.22-5.221-2-2 6.293-6.293-1.414-1.414-6.293 6.293-2-2-5.221 5.221-5.896-2.621c2.992-1.013 5.434-2.227 5.564-2.292l1.629-.814-4.357-2.614c8.678-1.941 19.94-6.012 24.555-7.74-1.728 4.615-5.798 15.877-7.739 24.554z"/></svg>