<svg id="Layer_3" enable-background="new 0 0 64 64" height="512" viewBox="0 0 64 64" width="512" xmlns="http://www.w3.org/2000/svg"><path d="m40 9v-1.816c-1.161.414-2 1.514-2 2.816v4c0 1.302.839 2.402 2 2.816v-1.816h2v1.816c1.161-.414 2-1.514 2-2.816v-4c0-1.302-.839-2.402-2-2.816v1.816z"/><path d="m40 16.816v5.326c.321-.084.653-.142 1-.142s.679.058 1 .141v-5.326c-.314.113-.648.185-1 .185s-.686-.072-1-.184z"/><path d="m28.879 4.464h2.243v5.071h-2.243z" transform="matrix(.707 -.707 .707 .707 3.837 23.264)"/><path d="m23 10.414-20 20v7.172l23.586-23.586z"/><path d="m25.879 7.464h2.243v5.071h-2.243z" transform="matrix(.707 -.707 .707 .707 .837 22.021)"/><path d="m40 25v-2.859c-1.722.446-3 1.997-3 3.859v1.59c1.269-.38 2.61-.59 4-.59s2.731.21 4 .59v-1.59c0-1.862-1.278-3.413-3-3.859v2.859z"/><path d="m52.445 32.963 2.555-5.963-5.963 2.555c1.323.932 2.476 2.085 3.408 3.408z"/><path d="m41 53c6.617 0 12-5.383 12-12s-5.383-12-12-12-12 5.383-12 12 5.383 12 12 12zm8.96-16.445c.351.704.617 1.453.792 2.224l-1.95.443c-.14-.616-.353-1.214-.633-1.776zm-8.96 12.445c4.411 0 8-3.589 8-8h2c0 5.514-4.486 10-10 10z"/><path d="m62 41-7.271-2.727c.175.883.271 1.794.271 2.727s-.096 1.844-.271 2.727z"/><path d="m49.037 52.445 5.963 2.555-2.555-5.963c-.932 1.323-2.085 2.476-3.408 3.408z"/><path d="m38.273 54.729 2.727 7.271 2.727-7.271c-.883.175-1.794.271-2.727.271s-1.844-.096-2.727-.271z"/><path d="m29.555 49.037-2.555 5.963 5.963-2.555c-1.323-.932-2.476-2.085-3.408-3.408z"/><path d="m27 41c0-.933.096-1.844.271-2.727l-7.271 2.727 7.271 2.727c-.175-.883-.271-1.794-.271-2.727z"/><path d="m32.963 29.555-5.963-2.555 2.555 5.963c.932-1.323 2.085-2.476 3.408-3.408z"/><path d="m35.414 3h3.586c.551 0 1 .448 1 1v3.184c.314-.112.648-.184 1-.184s.686.072 1 .184v-3.184c0-1.654-1.346-3-3-3h-4c-.265 0-.52.105-.707.293l-2.793 2.793 1.414 1.414z"/></svg>