<?xml version="1.0" encoding="iso-8859-1"?>
<!-- Generator: Adobe Illustrator 19.0.0, SVG Export Plug-In . SVG Version: 6.00 Build 0)  -->
<svg version="1.1" id="Capa_1" xmlns="http://www.w3.org/2000/svg" xmlns:xlink="http://www.w3.org/1999/xlink" x="0px" y="0px"
	 viewBox="0 0 512 512" style="enable-background:new 0 0 512 512;" xml:space="preserve">
<g>
	<g>
		<path d="M460.433,240.75C452.965,139.677,371.889,58.761,270.75,51.535V0h-30v51.567C139.677,59.035,58.761,140.111,51.535,241.25
			H0v30h51.567c7.468,101.073,88.544,181.989,189.683,189.215V512h30v-51.567c101.073-7.468,181.989-88.544,189.215-189.683H512v-30
			H460.433z M256,431c-96.495,0-175-78.505-175-175S159.505,81,256,81s175,78.505,175,175S352.495,431,256,431z"/>
	</g>
</g>
<g>
	<g>
		<path d="M256,111c-80.081,0-145,64.919-145,145s64.919,145,145,145s145-64.919,145-145S336.081,111,256,111z M300.644,321.42
			L256,297.95l-44.643,23.471l8.526-49.711l-36.117-35.205l49.913-7.253L256,184.022l22.321,45.229l49.913,7.253l-36.117,35.206
			L300.644,321.42z"/>
	</g>
</g>
<g>
</g>
<g>
</g>
<g>
</g>
<g>
</g>
<g>
</g>
<g>
</g>
<g>
</g>
<g>
</g>
<g>
</g>
<g>
</g>
<g>
</g>
<g>
</g>
<g>
</g>
<g>
</g>
<g>
</g>
</svg>
