<svg height="512" viewBox="0 0 52 59" width="512" xmlns="http://www.w3.org/2000/svg"><g id="Page-1" fill="none" fill-rule="evenodd"><g id="086---Weapons" fill="rgb(0,0,0)" fill-rule="nonzero"><path id="Shape" d="m7 10c0-.55228475.44771525-1 1-1s1 .44771525 1 1v23h3v-25.6l-3.152-5.043c-.18233928-.29421693-.50386243-.47321731-.85-.47321731s-.66766072.17900038-.85.47321731l-3.148 5.043v25.6h3z"/><path id="Shape" d="m14.5 35h-13c-.82842712 0-1.5.6715729-1.5 1.5s.67157288 1.5 1.5 1.5h3.5v14.38c-1.41822831 1.6081197-1.31622039 4.0484851.23126569 5.5326372 1.54748609 1.4841521 3.98998253 1.4841521 5.53746861 0 1.5474861-1.4841521 1.649494-3.9245175.2312657-5.5326372v-14.38h3.5c.8284271 0 1.5-.6715729 1.5-1.5s-.6715729-1.5-1.5-1.5zm-7.5 5h2v2.72l-2-.5zm0 4.28 2 .5v1.94l-2-.5zm0 4 2 .5v2.36c-.32627308-.0877826-.66216433-.1348074-1-.14-.33783567.0051926-.67372692.0522174-1 .14zm1 8.72c-1.1045695 0-2-.8954305-2-2s.8954305-2 2-2 2 .8954305 2 2c-.0032948 1.1032019-.89679813 1.9967052-2 2z"/><path id="Shape" d="m24 0v9c0 .55228475-.4477153 1-1 1s-1-.44771525-1-1v-8.95l-5 7.65 3 3.01v45.29c0 1.6568542 1.3431458 3 3 3s3-1.3431458 3-3v-45.25l3-2.99zm0 56c0 .5522847-.4477153 1-1 1s-1-.4477153-1-1v-2h2zm0-35h-2v-2h2zm0-4h-2v-2h2z"/><path id="Shape" d="m48.951 4.1c-.012.266-.028.513-.048.683-.0457676.41428765-.1287699.82360908-.248 1.223.8968747 1.87022222 1.3567995 3.91987942 1.345 5.994.0116128 2.0737796-.4483064 4.1230703-1.345 5.993.1201305.4012599.2034746.8126249.249 1.229.02.167.035.412.048.676 2.0217253-2.1252087 3.1178884-4.9655948 3.048-7.898.0708144-2.93334869-1.0258482-5.77481626-3.049-7.9z"/><path id="Shape" d="m47.43 8.35c-1.1007278 1.38176404-2.6832016 2.296241-4.43 2.56v-6.91c-.0032948-1.10320187-.8967981-1.9967052-2-2h-2c-1.1032019.0032948-1.9967052.89679813-2 2v4.13c-1.8499771.32066121-3.1506189 1.9984892-3 3.87-.1395877 1.868207 1.1559722 3.5394794 3 3.87v40.13c0 1.6568542 1.3431458 3 3 3s3-1.3431458 3-3v-42.9c1.7460669.2658452 3.3278299 1.1799114 4.43 2.56.7602289-2.3773697.7602289-4.9326303 0-7.31zm-6.43 47.65c0 .5522847-.4477153 1-1 1s-1-.4477153-1-1v-1h2zm0-33h-2v-2h2zm0-4h-2v-6h2zm0-8h-2v-7h2z"/></g></g></svg>