<svg height="512" viewBox="0 0 56 47" width="512" xmlns="http://www.w3.org/2000/svg"><g id="Page-1" fill="none" fill-rule="evenodd"><g id="010---Bunker" fill="rgb(0,0,0)" fill-rule="nonzero"><path id="Shape" d="m33 28h-10c-.5522847 0-1 .4477153-1 1v17c0 .5522847.4477153 1 1 1h10c.5522847 0 1-.4477153 1-1v-17c0-.5522847-.4477153-1-1-1zm-9 10v-7c0-.5522847.4477153-1 1-1h6c.5522847 0 1 .4477153 1 1v7c0 .5522847-.4477153 1-1 1h-6c-.5522847 0-1-.4477153-1-1zm8 5h-1c-.5522847 0-1-.4477153-1-1s.4477153-1 1-1h1c.5522847 0 1 .4477153 1 1s-.4477153 1-1 1z"/><path id="Shape" d="m8 34v3.76l3.76-3.76z"/><path id="Shape" d="m28.32 18.01h-.14c-.0529056-.0083078-.1064716-.0116557-.16-.01h-.02c-13.23 0-24 8.97-24 20v8c0 .5522847.44771525 1 1 1h14c.5522847 0 1-.4477153 1-1v-17c0-1.6568542 1.3431458-3 3-3h10c1.6568542 0 3 1.3431458 3 3v17c0 .5522847.4477153 1 1 1h14c.5522847 0 1-.4477153 1-1v-8c.002275-1.5214436-.2063776-3.0358578-.62-4.5-2.43-8.78-11.82-15.37-23.06-15.49zm-9.91 17.82-.41.41v5.76c-.0032948 1.1032019-.8967981 1.9967052-2 2h-5.76l-.41.41c-.37408385.37753-.88352319.5899162-1.415.5899162s-1.04091615-.2123862-1.415-.5899162l-1.41-1.41c-.37752996-.3740839-.58991619-.8835232-.58991619-1.415s.21238623-1.0409161.58991619-1.415l.41-.41v-5.76c.0032948-1.1032019.89679813-1.9967052 2-2h5.76l.41-.41c.3751365-.3755541.8841815-.5865733 1.415-.5865733s1.0398635.2110192 1.415.5865733l1.41 1.41c.37753.3740839.5899162.8835232.5899162 1.415s-.2123862 1.0409161-.5899162 1.415zm9.59-10.83c-1.6568542 0-3-1.3431458-3-3s1.3431458-3 3-3c.0502079-.001652.1004557.0016979.15.01h.01c.05 0 .1.01.14.01 1.5713915.1809274 2.7323376 1.5508366 2.6530841 3.1306229-.0792535 1.5797864-1.3714746 2.826627-2.9530841 2.8493771zm22.41 10.83-.41.41v5.76c-.0032948 1.1032019-.8967981 1.9967052-2 2h-5.76l-.41.41c-.3740839.37753-.8835232.5899162-1.415.5899162s-1.0409161-.2123862-1.415-.5899162l-1.41-1.41c-.37753-.3740839-.5899162-.8835232-.5899162-1.415s.2123862-1.0409161.5899162-1.415l.41-.41v-5.76c.0032948-1.1032019.8967981-1.9967052 2-2h5.76l.41-.41c.3751365-.3755541.8841815-.5865733 1.415-.5865733s1.0398635.2110192 1.415.5865733l1.41 1.41c.1877163.1858461.337199.4066728.44.65.10048.2407048.1514927.499169.15.76.0016513.5332885-.2109207 1.0449024-.59 1.42z"/><path id="Rectangle-path" d="m26 32h4v5h-4z"/><path id="Shape" d="m28 14c-15.44 0-28 10.77-28 24v8c0 .5522847.44771525 1 1 1s1-.4477153 1-1v-8c0-12.13 11.66-22 26-22s26 9.87 26 22v8c0 .5522847.4477153 1 1 1s1-.4477153 1-1v-8c0-13.23-12.56-24-28-24z"/><path id="Shape" d="m40 34v3.76l3.76-3.76z"/><path id="Shape" d="m16 42v-3.76l-3.76 3.76z"/><circle id="Oval" cx="28" cy="22" r="1"/><path id="Shape" d="m48 42v-3.76l-3.76 3.76z"/><path id="Rectangle-path" d="m5.936 37.007h12.138v1.99h-12.138z" transform="matrix(.707 -.707 .707 .707 -23.355 19.618)"/><path id="Rectangle-path" d="m37.935 37.007h12.138v1.99h-12.138z" transform="matrix(.707 -.707 .707 .707 -13.983 42.244)"/><path id="Shape" d="m20.68 3.95 2.33.78c-.0083237.08974583-.0116621.17988433-.01.27-.1018795 2.42338163 1.6100422 4.54616452 4 4.96v2.04h2v-2.29c1.8652467-.81328229 3.0515725-2.67581379 3-4.71.1283189-2.61989154-1.8811131-4.85259368-4.5-5-1.7721738.04741298-3.3507881 1.13246551-4.03 2.77l-2.15-.72c-.5246705-.17673111-1.0932689.1053295-1.27.63000001-.1767311.5246705.1053295 1.09326886.63 1.26999999zm6.64.1-1.93-.64c.382195-.82941171 1.1974672-1.37421443 2.11-1.41 1.5111996.15243291 2.6225774 1.4860863 2.5 3 .1225774 1.5139137-.9888004 2.84756709-2.5 3-1.3635313-.11832758-2.4261873-1.23240235-2.48-2.6l1.66.55c.104042.03049581.2116143.04730399.32.05.4299159.00110976.8124279-.27268828.95-.68.1717081-.52431884-.1086486-1.08948236-.63-1.27z"/></g></g></svg>