<svg height="512" viewBox="0 0 58 60" width="512" xmlns="http://www.w3.org/2000/svg"><g id="030---Fountain"><path id="Shape" d="m0 57c0 1.6568542 1.34314575 3 3 3h52c1.6568542 0 3-1.3431458 3-3z"/><path id="Shape" d="m55 44v-2c0-.5522847-.4477153-1-1-1h-17v-6h-16v6h-17c-.55228475 0-1 .4477153-1 1v2c0 .5522847.44771525 1 1 1h50c.5522847 0 1-.4477153 1-1zm-29-3h-2v-3c0-.5522847.4477153-1 1-1s1 .4477153 1 1zm4 0h-2v-2c0-.5522847.4477153-1 1-1s1 .4477153 1 1zm4 0h-2v-3c0-.5522847.4477153-1 1-1s1 .4477153 1 1z"/><path id="Shape" d="m39 16c-3.5868571.0056135-6.945711 1.7596816-9 4.7v-14.7c0-2.209139 1.790861-4 4-4s4 1.790861 4 4v5c0 .5522847.4477153 1 1 1s1-.4477153 1-1v-5c-.0029184-2.64534936-1.7379657-4.97665039-4.2711177-5.73889885s-5.266612.2244381-6.7288823 2.42889885c-1.4622703-2.20446075-4.1957303-3.19114731-6.7288823-2.42889885s-4.2681993 3.09354949-4.2711177 5.73889885v5c0 .5522847.4477153 1 1 1s1-.4477153 1-1v-5c0-2.209139 1.790861-4 4-4s4 1.790861 4 4v14.7c-2.7557336-3.9215137-7.7334336-5.6072931-12.3049396-4.1672687-4.5715061 1.4400244-7.68437804 5.6743339-7.6950604 10.4672687v1c0 .5522847.44771525 1 1 1s1-.4477153 1-1v-1c.0109473-4.5728203 3.4492434-8.4105472 7.9933864-8.9219871 4.5441429-.5114398 8.7494811 2.4660018 9.7766136 6.9219871h-14.77c0 4.418278 3.581722 8 8 8h16c4.418278 0 8-3.581722 8-8h-14.77c1.0271325-4.4559853 5.2324707-7.4334269 9.7766136-6.9219871 4.544143.5114399 7.9824391 4.3491668 7.9933864 8.9219871v1c0 .5522847.4477153 1 1 1s1-.4477153 1-1v-1c0-6.0751322-4.9248678-11-11-11z"/><path id="Shape" d="m10 32c0-.5522847-.44771525-1-1-1s-1 .4477153-1 1v2c0 .5522847.44771525 1 1 1s1-.4477153 1-1z"/><path id="Shape" d="m9 37c-.55228475 0-1 .4477153-1 1v1c0 .5522847.44771525 1 1 1s1-.4477153 1-1v-1c0-.5522847-.44771525-1-1-1z"/><path id="Shape" d="m50 32c0-.5522847-.4477153-1-1-1s-1 .4477153-1 1v2c0 .5522847.4477153 1 1 1s1-.4477153 1-1z"/><path id="Shape" d="m49 37c-.5522847 0-1 .4477153-1 1v1c0 .5522847.4477153 1 1 1s1-.4477153 1-1v-1c0-.5522847-.4477153-1-1-1z"/><path id="Shape" d="m53 55v-8h-48v8zm-5-5c0-.5522847.4477153-1 1-1s1 .4477153 1 1v2c0 .5522847-.4477153 1-1 1s-1-.4477153-1-1zm-4 0c0-.5522847.4477153-1 1-1s1 .4477153 1 1v2c0 .5522847-.4477153 1-1 1s-1-.4477153-1-1zm-4 0c0-.5522847.4477153-1 1-1s1 .4477153 1 1v2c0 .5522847-.4477153 1-1 1s-1-.4477153-1-1zm-4 0c0-.5522847.4477153-1 1-1s1 .4477153 1 1v2c0 .5522847-.4477153 1-1 1s-1-.4477153-1-1zm-4 0c0-.5522847.4477153-1 1-1s1 .4477153 1 1v2c0 .5522847-.4477153 1-1 1s-1-.4477153-1-1zm-4 0c0-.5522847.4477153-1 1-1s1 .4477153 1 1v2c0 .5522847-.4477153 1-1 1s-1-.4477153-1-1zm-4 0c0-.5522847.4477153-1 1-1s1 .4477153 1 1v2c0 .5522847-.4477153 1-1 1s-1-.4477153-1-1zm-4 0c0-.5522847.4477153-1 1-1s1 .4477153 1 1v2c0 .5522847-.4477153 1-1 1s-1-.4477153-1-1zm-4 0c0-.5522847.4477153-1 1-1s1 .4477153 1 1v2c0 .5522847-.4477153 1-1 1s-1-.4477153-1-1zm-4 0c0-.5522847.4477153-1 1-1s1 .4477153 1 1v2c0 .5522847-.4477153 1-1 1s-1-.4477153-1-1zm-4 0c0-.5522847.44771525-1 1-1s1 .4477153 1 1v2c0 .5522847-.44771525 1-1 1s-1-.4477153-1-1z"/></g></svg>