<svg height="512" viewBox="0 0 59 60" width="512" xmlns="http://www.w3.org/2000/svg"><g id="041---Forging"><path id="Shape" d="m59 55c0-.5522847-.4477153-1-1-1h-1v-4c0-.5522847-.4477153-1-1-1s-1 .4477153-1 1v4h-36v-4c0-.5522847-.4477153-1-1-1s-1 .4477153-1 1v4h-1c-.5522847 0-1 .4477153-1 1v4c0 .5522847.4477153 1 1 1h42c.5522847 0 1-.4477153 1-1z"/><path id="Shape" d="m59 24c0-.5522847-.4477153-1-1-1h-42c-.5522847 0-1 .4477153-1 1v10c0 .5522847.4477153 1 1 1h42c.5522847 0 1-.4477153 1-1zm-38 4h-2c-.5522847 0-1-.4477153-1-1s.4477153-1 1-1h2c.5522847 0 1 .4477153 1 1s-.4477153 1-1 1zm29 0h-25c-.5522847 0-1-.4477153-1-1s.4477153-1 1-1h25c.5522847 0 1 .4477153 1 1s-.4477153 1-1 1z"/><path id="Shape" d="m52 52c-3.009-5.856-3.615-9.144-1.154-15h-27.692c2.461 5.856 1.855 9.144-1.154 15z"/><path id="Shape" d="m1.033 26.289c.826 5.711 4.254 6.711 11.967 6.711v-8h-11.141c-.573 0-.922.629-.826 1.289z"/><path id="Shape" d="m14 1v11c0 .5522847.4477153 1 1 1s1-.4477153 1-1v-11c0-.55228475-.4477153-1-1-1s-1 .44771525-1 1z"/><path id="Shape" d="m7 16h5c.5522847 0 1-.4477153 1-1s-.4477153-1-1-1h-5c-.55228475 0-1 .4477153-1 1s.44771525 1 1 1z"/><path id="Shape" d="m6.293 7.707 4 4c.3923789.3789722 1.0160848.3735524 1.4018186-.0121814s.3911536-1.0094397.0121814-1.4018186l-4-4c-.39237889-.37897221-1.01608478-.37355237-1.40181858.01218142-.38573379.3857338-.39115363 1.00943969-.01218142 1.40181858z"/><path id="Shape" d="m1.293 1.293c-.39038194.39049985-.39038194 1.02350015 0 1.414l2 2c.39237889.37897221 1.01608478.37355237 1.40181858-.01218142.38573379-.3857338.39115363-1.00943969.01218142-1.40181858l-2-2c-.39049985-.39038194-1.02350015-.39038194-1.414 0z"/><path id="Shape" d="m1 16h2c.55228475 0 1-.4477153 1-1s-.44771525-1-1-1h-2c-.55228475 0-1 .4477153-1 1s.44771525 1 1 1z"/><path id="Shape" d="m27 0c-1.6568542 0-3 1.34314575-3 3v15c0 1.6568542 1.3431458 3 3 3h8c1.6568542 0 3-1.3431458 3-3v-15c0-1.65685425-1.3431458-3-3-3z"/><path id="Shape" d="m19 9.9v1.2c-.0003392 1.0853343.8650049 1.9728667 1.95 2l1.05.03v-5.26l-1.05.03c-1.0849951.02713331-1.9503392.91466571-1.95 2z"/><path id="Shape" d="m59 9c.0001685-.53921078-.2173948-1.05564523-.6033522-1.432189s-.9076055-.5812913-1.4466478-.567811l-16.95.42v6.16l10 .25v-2.83c0-.5522847.4477153-1 1-1s1 .4477153 1 1v2.85c0 .01-.01.02-.01.03l2.01.05v-2.93c0-.5522847.4477153-1 1-1s1 .4477153 1 1v2.95c0 .01-.01.02-.01.03l.96.02c.5390423.0134803 1.0606904-.1912672 1.4466478-.567811s.6035207-.8929782.6033522-1.432189z"/></g></svg>