<svg id="Layer_3" enable-background="new 0 0 64 64" height="512" viewBox="0 0 64 64" width="512" xmlns="http://www.w3.org/2000/svg"><g><path d="m61 61v-2h-4v2h-6l-.001-19.878-4.115 5.761.107-.014 1.876 14.131h-10.867v-6h2c.552 0 1-.448 1-1v-1h-3v-2h-2v2h-8v-2h-2v2h-3v1c0 .551.448 1 1 1h2v6h-10.867l1.876-14.132.107.014-4.116-5.761v19.879h-6v-4h-4v4h-1v2h60v-2zm-25 0h-8v-6h8z"/><path d="m30 4.999v2.001h4v-2.001c0-1.102-.897-1.999-2-1.999s-2 .897-2 1.999z"/><path d="m18 12v3h8v-4h2v4h8v-4h2v4h8v-3c0-1.654-1.346-3-3-3h-22c-1.654 0-3 1.346-3 3z"/><path d="m58 38v19h2v-20c0-2.206-1.794-4-4-4h-3v2h2c1.654 0 3 1.345 3 3z"/><path d="m28 17h8v4h-8z"/><path d="m13 19v18h13v-20h-11c-1.103 0-2 .896-2 2z"/><path d="m38 36.999h13v-17.999c0-1.103-.897-2-2-2h-11z"/><path d="m28 34.999h8v2h-8z"/><path d="m28 22.999h8v2h-8z"/><path d="m28 30.999h8v2h-8z"/><path d="m28 26.999h8v2h-8z"/><path d="m13.942 38.999 8.572 12.001h3.486v-12.001z"/><path d="m50.057 38.999h-12.057v12.001h3.485z"/><path d="m28 38.999h8v2h-8z"/><path d="m28 46.999h8v4h-8z"/><path d="m28 42.999h8v2h-8z"/><path d="m6 8c0-2.757 2.243-5 5-5h17.556c.694-1.19 1.969-2 3.443-2h-20.999c-3.86 0-7 3.14-7 7v47h2z"/></g></svg>