<svg height="496pt" viewBox="0 -8 496 496" width="496pt" xmlns="http://www.w3.org/2000/svg"><path d="m0 464h16v16h-16zm0 0"/><path d="m480 464h16v16h-16zm0 0"/><path d="m224.894531 115.617188c2.785157 7.398437 9.960938 12.382812 17.882813 12.382812h10.453125c7.914062 0 15.097656-4.984375 17.875-12.390625l15.679687-41.824219c.808594-2.144531 1.214844-4.402344 1.214844-6.695312 0-10.53125-8.558594-19.089844-19.089844-19.089844h-41.832031c-10.519531 0-19.078125 8.558594-19.078125 19.089844 0 2.292968.40625 4.542968 1.214844 6.695312zm23.105469-51.617188c13.230469 0 24 10.769531 24 24s-10.769531 24-24 24-24-10.769531-24-24 10.769531-24 24-24zm0 0"/><path d="m464.863281 54.320312c-8.617187-6.871093-19.40625-9.945312-30.320312-8.695312l-131.183594 15.160156c.375 2.046875.640625 4.144532.640625 6.304688 0 4.214844-.753906 8.359375-2.230469 12.316406l-5.953125 15.875 182.625-21.121094c-2.410156-7.769531-7.074218-14.648437-13.578125-19.839844zm0 0"/><path d="m194.230469 79.40625c-.710938-1.894531-1.230469-3.839844-1.605469-5.8125l-134.640625 15.566406c-19.976563 2.3125-35.128906 18.535156-36.824219 37.871094l182.984375-21.160156zm0 0"/><path d="m256 88c0 4.417969-3.582031 8-8 8s-8-3.582031-8-8 3.582031-8 8-8 8 3.582031 8 8zm0 0"/><path d="m336 460.878906c0-17.933594-12.222656-33.175781-29.734375-37.070312l-10.945313-2.433594c-18.449218-4.09375-31.320312-20.152344-31.320312-39.039062v-240.070313c-3.433594 1.117187-7.054688 1.734375-10.777344 1.734375h-10.453125c-3.722656 0-7.34375-.617188-10.777343-1.734375v240.0625c0 18.886719-12.871094 34.953125-31.320313 39.046875l-10.945313 2.433594c-17.503906 3.894531-29.726562 19.136718-29.726562 37.070312v3.121094h-128v16h432v-16h-128zm-64-28.878906h16v16h-16zm-32 0h16v16h-16zm-32 0h16v16h-16zm0 0"/><path d="m264 16c0-8.824219-7.175781-16-16-16s-16 7.175781-16 16v16h32zm0 0"/><path d="m387.359375 100.800781-10.496094 48.992188c5.542969-2.105469 11.335938-3.65625 17.34375-4.609375l9.929688-46.328125zm0 0"/><path d="m427.640625 96.144531-15.960937 1.847657 10.113281 47.199218c6.007812.953125 11.808593 2.496094 17.34375 4.609375zm0 0"/><path d="m349.769531 336h116.460938l10.664062-32h-137.789062zm0 0"/><path d="m416 272v16h36.953125c17.175781-13.769531 27.046875-34 27.046875-56 0-39.695312-32.296875-72-72-72s-72 32.304688-72 72c0 22 9.871094 42.230469 27.046875 56h36.953125v-17.472656c-9.289062-3.3125-16-12.113282-16-22.527344h16c0 4.40625 3.585938 8 8 8h8v-8c0-4.40625-3.585938-8-8-8-13.230469 0-24-10.769531-24-24v-24h16v-16h16v17.472656c9.289062 3.3125 16 12.113282 16 22.527344h-16c0-4.40625-3.585938-8-8-8h-8v8c0 4.40625 3.585938 8 8 8 13.230469 0 24 10.769531 24 24v24zm0 0"/><path d="m73.742188 193.265625 10.152343-57.378906-16.582031 1.921875-10.625 60.054687c5.449219-2.085937 11.152344-3.632812 17.054688-4.597656zm0 0"/><path d="m102.257812 193.265625c5.902344.964844 11.605469 2.511719 17.054688 4.597656l-11.457031-64.742187-15.917969 1.839844zm0 0"/><path d="m156.894531 352h-137.789062l10.664062 32h116.460938zm0 0"/><path d="m43.046875 336h36.953125v-17.472656c-9.289062-3.3125-16-12.113282-16-22.527344h16c0 4.40625 3.585938 8 8 8h8v-8c0-4.40625-3.585938-8-8-8-13.230469 0-24-10.769531-24-24v-24h16v-16h16v17.472656c9.289062 3.3125 16 12.113282 16 22.527344h-16c0-4.40625-3.585938-8-8-8h-8v8c0 4.40625 3.585938 8 8 8 13.230469 0 24 10.769531 24 24v24h-16v16h36.953125c17.175781-13.769531 27.046875-34 27.046875-56 0-39.695312-32.296875-72-72-72s-72 32.304688-72 72c0 22 9.871094 42.230469 27.046875 56zm0 0"/></svg>