<svg id="_x33_0" enable-background="new 0 0 64 64" height="512" viewBox="0 0 64 64" width="512" xmlns="http://www.w3.org/2000/svg"><g><path d="m9 23.303-5.131 7.697h12.263l-5.132-7.697v-10.069l-8.243 4.946 6.243 2.497z"/><path d="m19 39h2v-2h2v-6h-4.465l1.334 2h-2.869v4h2z"/><path d="m15 39v4 1 1h2v-2h6v2h18v-2h6v2h2v-1-1-4h-2v2h-6v-2h-2v2h-6v-2h-2v2h-6v-2h-2v2h-6v-2z"/><path d="m9 45v-2h4v-6h2v-4h-10v10h2v2z"/><path d="m23 24.414-4.586 4.586h4.586z"/><path d="m21 45h-2v2h-6v-2h-2v2h-6v-2h-2v4.001l18-.001z"/><path d="m41 24.414v4.586h4.586z"/><path d="m57 45v-2h2v-10h-10v4h2v6h4v2z"/><path d="m43 39h2v-2h2v-4h-2.869l1.334-2h-4.465v6h2z"/><path d="m35 38v1h2v-2h2v-16h-14v16h2v2h2v-1-1-4c0-1.103.897-2 2-2h2c1.103 0 2 .897 2 2v4zm-1-11c0 .552-.448 1-1 1h-2c-.552 0-1-.448-1-1v-2c0-.552.448-1 1-1h2c.552 0 1 .448 1 1z"/><path d="m24.261 19h15.479l-6.74-7.413v-9.353l-8.243 4.946 6.243 2.497v1.91z"/><path d="m31 33h2v4h-2z"/><path d="m60.131 31-5.131-7.697v-2.626l6.243-2.498-8.243-4.945v10.069l-5.131 7.697z"/><path d="m35 51.547v1.453h1.444c-.35-.599-.848-1.102-1.444-1.453z"/><path d="m31 51h2v2h-2z"/><path d="m35 59h2v2h-2z"/><path d="m35 55h2v2h-2z"/><path d="m41 49v-2h-18v2c0 1.103-.897 2-2 2v10h4v-6c0-3.309 2.691-6 6-6h2c3.309 0 6 2.691 6 6v6h4v-10c-1.103 0-2-.897-2-2z"/><path d="m45 61h5v-6c0-.552.448-1 1-1h2c.552 0 1 .448 1 1v6h5v-10h-14z"/><path d="m59 47h-6v-2h-2v2h-6v-2h-2v4.001l18-.001v-4h-2z"/><path d="m27 59h2v2h-2z"/><path d="m31 55h2v2h-2z"/><path d="m27 55h2v2h-2z"/><path d="m5 61h5v-6c0-.552.448-1 1-1h2c.552 0 1 .448 1 1v6h5v-10h-14z"/><path d="m27.556 53h1.444v-1.453c-.596.351-1.094.854-1.444 1.453z"/><path d="m31 59h2v2h-2z"/></g></svg>