<?xml version="1.0" encoding="iso-8859-1"?>
<!-- Generator: Adobe Illustrator 16.0.0, SVG Export Plug-In . SVG Version: 6.00 Build 0)  -->
<!DOCTYPE svg PUBLIC "-//W3C//DTD SVG 1.1//EN" "http://www.w3.org/Graphics/SVG/1.1/DTD/svg11.dtd">
<svg version="1.1" id="Capa_1" xmlns="http://www.w3.org/2000/svg" xmlns:xlink="http://www.w3.org/1999/xlink" x="0px" y="0px"
	 width="122.298px" height="122.298px" viewBox="0 0 122.298 122.298" style="enable-background:new 0 0 122.298 122.298;"
	 xml:space="preserve">
<g>
	<g>
		<path d="M108.166,31.997c-0.381,0-0.767,0.045-1.147,0.15c-2.361,0.635-3.763,3.06-3.133,5.418
			c1.27,4.743,1.919,9.684,1.919,14.681c0,12.416-4.021,24.356-11.313,33.629c-1.514,1.92-1.178,4.697,0.741,6.21
			c0.812,0.64,1.768,0.95,2.732,0.95c1.31,0,2.604-0.579,3.478-1.691c8.517-10.821,13.208-24.709,13.208-39.098
			c0-5.771-0.741-11.481-2.214-16.968C111.908,33.302,110.121,31.997,108.166,31.997z M98.259,91.379
			c-1.696,0-3.066-1.371-3.066-3.062c0-1.69,1.37-3.062,3.066-3.062c1.686,0,3.057,1.371,3.057,3.062
			C101.315,90.008,99.955,91.379,98.259,91.379z M105.195,36.717c0-1.693,1.376-3.062,3.067-3.062c1.686,0,3.062,1.374,3.062,3.062
			c0,1.696-1.376,3.064-3.062,3.064C106.571,39.781,105.195,38.413,105.195,36.717z M106.806,75.54
			c-1.696,0-3.062-1.376-3.062-3.062c0-1.691,1.371-3.067,3.062-3.067c1.69,0,3.062,1.376,3.062,3.067
			C109.867,74.164,108.501,75.54,106.806,75.54z M113.341,55.178c0,1.696-1.371,3.062-3.062,3.062c-1.69,0-3.062-1.373-3.062-3.062
			c0-1.696,1.371-3.062,3.062-3.062C111.97,52.115,113.341,53.481,113.341,55.178z"/>
		<path d="M92.592,29.656c3.601,6.723,5.565,14.533,5.565,22.589c0,23.676-16.604,42.932-37.013,42.932S24.133,75.921,24.133,52.245
			c0-8.056,1.965-15.866,5.563-22.589L11.601,12.939C4.139,24.296,0,38.064,0,52.245c0,17.658,6.193,34.324,17.44,46.928
			c5.611,6.287,12.142,11.197,19.271,14.609l3.681-10.815c0.1-0.295,0.328-0.528,0.625-0.63c0.289-0.097,0.612-0.061,0.873,0.106
			c0.071,0.046,7.638,4.829,19.258,4.829c11.619,0,19.185-4.783,19.261-4.829c0.259-0.167,0.584-0.208,0.873-0.106
			c0.29,0.106,0.523,0.335,0.625,0.63l3.681,10.815c7.13-3.412,13.66-8.322,19.271-14.609c11.248-12.604,17.438-29.27,17.438-46.928
			c0-14.181-4.133-27.954-11.598-39.306L92.592,29.656z M30.722,89.373c-0.203,1.701-1.061,3.234-2.415,4.29
			c-1.127,0.895-2.542,1.382-3.976,1.382c-1.988,0-3.834-0.894-5.06-2.458C10.479,81.415,5.632,67.091,5.632,52.245
			c0-5.944,0.769-11.829,2.282-17.488c0.754-2.813,3.309-4.773,6.213-4.773c0.563,0,1.125,0.073,1.671,0.218
			c1.658,0.442,3.047,1.508,3.91,3.001c0.858,1.488,1.086,3.225,0.645,4.882c-1.221,4.575-1.846,9.339-1.846,14.16
			c0,11.964,3.862,23.463,10.882,32.385C30.45,85.98,30.922,87.667,30.722,89.373z M116.661,52.245
			c0,14.84-4.839,29.165-13.639,40.342c-1.225,1.564-3.067,2.458-5.058,2.458c-1.433,0-2.849-0.487-3.977-1.382
			c-2.788-2.193-3.275-6.245-1.076-9.033c7.013-8.922,10.882-20.416,10.882-32.385c0-4.827-0.619-9.59-1.849-14.16
			c-0.914-3.428,1.128-6.962,4.561-7.883c0.543-0.145,1.106-0.218,1.665-0.218l0,0c2.905,0,5.464,1.96,6.216,4.773
			C115.895,40.416,116.661,46.301,116.661,52.245z"/>
		<path d="M61.144,109.283c-9.745,0-16.664-3.133-19.243-4.514l-3.349,9.851c7.086,3.083,14.721,4.697,22.597,4.697
			c7.881,0,15.513-1.614,22.597-4.697l-3.352-9.851C77.81,106.15,70.894,109.283,61.144,109.283z"/>
		<path d="M16.493,52.245c0-4.997,0.645-9.938,1.915-14.681c0.63-2.358-0.769-4.788-3.13-5.418c-0.386-0.099-0.77-0.15-1.15-0.15
			c-1.955,0-3.742,1.305-4.273,3.281c-1.468,5.491-2.209,11.202-2.209,16.968c0,14.394,4.689,28.276,13.206,39.098
			c0.875,1.107,2.168,1.691,3.48,1.691c0.955,0,1.922-0.315,2.734-0.95c1.92-1.513,2.252-4.29,0.739-6.21
			C20.513,76.606,16.493,64.661,16.493,52.245z M14.076,33.654c1.696,0,3.062,1.374,3.062,3.062c0,1.69-1.366,3.069-3.062,3.069
			c-1.696,0-3.062-1.374-3.062-3.062C11.014,35.033,12.385,33.654,14.076,33.654z M9.006,55.178c0-1.696,1.374-3.062,3.062-3.062
			c1.691,0,3.064,1.366,3.064,3.062c0,1.696-1.374,3.062-3.064,3.062C10.379,58.239,9.006,56.874,9.006,55.178z M15.536,75.54
			c-1.693,0-3.062-1.376-3.062-3.062c0-1.696,1.374-3.067,3.062-3.067c1.691,0,3.064,1.376,3.064,3.067
			C18.601,74.164,17.227,75.54,15.536,75.54z M24.085,91.379c-1.693,0-3.062-1.371-3.062-3.062c0-1.696,1.374-3.062,3.062-3.062
			c1.691,0,3.064,1.371,3.064,3.062C27.149,90.008,25.776,91.379,24.085,91.379z"/>
		<path d="M20.066,3.408l-0.432-0.427c-0.14,0.14-0.274,0.287-0.412,0.427c-2.354,2.437-4.517,5.065-6.477,7.851l17.971,16.6
			c1.724-2.897,3.768-5.565,6.104-7.932L20.066,3.408z"/>
		<path d="M103.073,3.408c-0.138-0.14-0.274-0.287-0.412-0.427l-0.432,0.427L85.473,19.926c2.336,2.367,4.377,5.035,6.104,7.932
			l17.977-16.6C107.593,8.473,105.429,5.845,103.073,3.408z"/>
	</g>
</g>
<g>
</g>
<g>
</g>
<g>
</g>
<g>
</g>
<g>
</g>
<g>
</g>
<g>
</g>
<g>
</g>
<g>
</g>
<g>
</g>
<g>
</g>
<g>
</g>
<g>
</g>
<g>
</g>
<g>
</g>
</svg>
