<svg height="512pt" viewBox="0 -2 512 512" width="512pt" xmlns="http://www.w3.org/2000/svg"><path d="m194.738281 128.277344c-70.238281 70.226562-82.238281 179.828125-28.867187 263.59375 1.457031 2.214844 3.839844 3.652344 6.480468 3.910156 2.640626.257812 5.253907-.695312 7.113282-2.585938l17.742187-17.746093 12.625-12.535157v-.085937l26.304688-26.308594c2.230469-2.28125 3.070312-5.578125 2.207031-8.648437l-6.707031-23.570313c-3.519531-12.328125-.109375-25.59375 8.914062-34.691406l95.515625-95.515625c9.101563-9.027344 22.367188-12.4375 34.691406-8.917969l23.570313 6.710938c3.070313.863281 6.367187.019531 8.652344-2.207031l56.671875-56.671876c1.894531-1.859374 2.84375-4.476562 2.585937-7.117187-.257812-2.636719-1.695312-5.019531-3.910156-6.480469-46.171875-29.433594-101.949219-39.84375-155.628906-29.042968l-22.601563-24.890626c3.972656-.675781 7.984375-1.117187 12.007813-1.324218 12.1875-.414063 21.730469-10.632813 21.316406-22.820313s-10.628906-21.734375-22.816406-21.3203122c-10.265625.5429692-20.460938 2.0195312-30.457031 4.4140622-94.632813 20.921875-165.25 97.722657-195.972657 187.058594-7.800781 22.265625-12.753906 45.433594-14.742187 68.941406h44.84375c1.699218-18.613281 5.609375-36.957031 11.652344-54.640625 30.28125-88.1875 85.011718-128.265625 127.382812-146.449218l23.394531 25.863281v.089843c-23.089843 10.457032-44.085937 25.023438-61.96875 42.988282zm0 0"/><path d="m52.964844 330.78125c0-4.875 3.953125-8.828125 8.828125-8.828125s8.828125 3.953125 8.828125 8.828125v61.792969h26.480468l-.007812-105.929688c0-4.875-3.953125-8.828125-8.828125-8.828125h-8.816406c-4.875 0-8.828125 3.953125-8.828125 8.828125v8.828125c0 4.875-3.953125 8.828125-8.828125 8.828125s-8.828125-3.953125-8.828125-8.828125v-8.828125c0-4.875-3.953125-8.828125-8.828125-8.828125h-26.480469c-4.875 0-8.828125 3.953125-8.828125 8.828125v105.929688h44.136719zm0 0"/><path d="m8.828125 507.335938h494.34375c4.871094-.015626 8.8125-3.960938 8.828125-8.828126v-35.3125h-88.277344c-4.867187-.011718-8.8125-3.957031-8.824218-8.828124.027343-2.925782 1.476562-5.65625 3.882812-7.324219 1.453125-.996094 3.179688-1.519531 4.941406-1.5h88.277344v-26.484375c-.015625-4.871094-3.957031-8.8125-8.828125-8.828125h-43.519531c-.980469 1.921875-2.332032 3.632812-3.972656 5.03125-4.5 3.058593-9.960938 4.375-15.359376 3.707031-1.5625-.046875-3.125.011719-4.679687.179688-.308594 1.316406-.785156 2.59375-1.410156 3.792968-1.570313 5.167969-4.957031 9.589844-9.535157 12.449219-1.96875 1.011719-4.144531 1.554687-6.355468 1.589844-3.246094.085937-6.488282-.300781-9.621094-1.148438-1.300781-.382812-2.628906-.648437-3.972656-.796875-.707032.796875-1.765625 2.296875-2.5625 3.355469-2.238282 5.046875-6.640625 8.808594-11.972656 10.230469-5.332032 1.425781-11.023438.355468-15.480469-2.902344-1.417969-.710938-2.894531-1.300781-4.414063-1.765625.175782.175781-1.5 1.765625-2.648437 2.824219-3.542969 4.128906-8.46875 6.828125-13.859375 7.589844h-.792969c-5.128906-.425782-9.96875-2.535157-13.773437-6-1.238282-1.007813-2.566407-1.894532-3.96875-2.648438.085937.265625-1.855469 1.410156-3.179688 2.207031-4.335938 3.3125-9.742188 4.914063-15.183594 4.5-5.289062-1.296875-9.925781-4.464843-13.066406-8.914062-.871094-1.089844-1.816406-2.121094-2.824219-3.089844-.96875.265625-2.734375.792969-3.882812 1.234375-4.957031 2.378906-10.625 2.820312-15.890625 1.238281-4.867188-2.371093-8.722656-6.414062-10.855469-11.390625-.65625-1.25-1.394531-2.460937-2.207031-3.617187-1.363282-.007813-2.722656.109375-4.0625.351562-5.3125 1.226563-10.886719.507813-15.710938-2.03125-4.324218-3.335937-7.277344-8.140625-8.300781-13.503906-.175781-.707031-.441406-1.675781-.707031-2.472656h-239.402344v88.277343c.015625 4.867188 3.957031 8.8125 8.828125 8.828126zm132.414063-61.792969h123.585937c4.875 0 8.828125 3.949219 8.828125 8.824219 0 4.878906-3.953125 8.828124-8.828125 8.828124h-123.585937c-4.875 0-8.828126-3.949218-8.828126-8.828124 0-4.875 3.953126-8.824219 8.828126-8.824219zm0 0"/><path d="m500.347656 289.117188c.871094-.867188 1.695313-1.78125 2.472656-2.738282-.53125-.882812-1.5-2.117187-2.121093-3-3.351563-3.710937-5.480469-8.367187-6.089844-13.328125.175781-4.898437 1.804687-9.628906 4.679687-13.597656.527344-.882813 1.324219-2.207031 1.851563-3.175781-.792969-.796875-1.941406-1.765625-2.824219-2.5625-3.933594-2.90625-6.9375-6.894532-8.648437-11.472656-.859375-4.867188-.242188-9.875 1.765625-14.390626.351562-1.058593.882812-2.558593 1.144531-3.621093-1.046875-.6875-2.136719-1.304688-3.265625-1.851563-4.511719-2.03125-8.296875-5.390625-10.855469-9.621094-1.847656-4.5-2.308593-9.449218-1.324219-14.214843.175782-1.148438.351563-2.734375.441407-3.792969-1.0625-.441406-2.472657-.882812-3.53125-1.238281-4.875-.960938-9.320313-3.433594-12.714844-7.0625-2.761719-4.027344-4.238281-8.796875-4.234375-13.683594-.089844-1.234375-.265625-2.824219-.441406-3.792969-1.253906-.238281-2.523438-.386718-3.796875-.441406-4.960938-.019531-9.800781-1.558594-13.859375-4.414062-.457032-.367188-.871094-.78125-1.234375-1.238282-.089844.089844-.089844 0-.089844 0l-22.246094 22.246094c-4.953125 4.984375-11.6875 7.78125-18.714843 7.769531-2.449219-.003906-4.886719-.363281-7.238282-1.058593l-23.570312-6.710938c-1.582032-.421875-3.214844-.628906-4.855469-.617188-4.695313-.046874-9.214844 1.796876-12.535156 5.121094l-95.511719 95.425782c-4.460938 4.597656-6.140625 11.222656-4.414062 17.390624l6.707031 23.570313c2.628906 9.125.171875 18.960937-6.441407 25.773437l-22.425781 22.511719c.4375.417969.847657.863281 1.238281 1.324219 2.800782 4.046875 4.308594 8.847656 4.324219 13.769531.054688 1.277344.203125 2.542969.441407 3.796875.972656.175782 2.5625.355469 3.796874.441406 4.925782 0 9.730469 1.507813 13.769532 4.328126 3.589844 3.375 6.027344 7.789062 6.976562 12.621093.261719.707031.617188 1.765625.882813 2.648438.085937.355469.261719.707031.351562.972656.792969-.089844 2.472657-.355469 3.796875-.53125 1.851563-.175781 3.882813-.441406 6-.441406h.972656c2.515626.039062 4.988282.644531 7.238282 1.765625 4.234375 2.5625 7.589844 6.347656 9.621094 10.859375.546874 1.125 1.167968 2.21875 1.855468 3.265625 1.058594-.265625 2.558594-.796875 3.617188-1.148438 4.425781-1.988281 9.347656-2.605468 14.125-1.765625 4.699218 1.632813 8.792968 4.648438 11.742187 8.652344.707031.882813 1.765625 2.03125 2.558594 2.824219.972656-.53125 2.296875-1.324219 3.179687-1.855469 3.992188-2.886719 8.757813-4.519531 13.683594-4.675781 4.929688.625 9.550782 2.753906 13.238282 6.089844.882812.617187 2.121093 1.589843 3.003906 2.117187.953125-.773437 1.867187-1.597656 2.734375-2.46875 3.320312-3.65625 7.652343-6.238281 12.449219-7.417969 4.929687-.402344 9.867187.738282 14.121093 3.265625 1.0625.441407 2.472657 1.148438 3.445313 1.503907.707031-.796876 1.5-2.03125 2.207031-3.003907 4.390625-9.347656 15.355469-13.585937 24.894531-9.621093 1.246094.3125 2.515625.546874 3.792969.707031.570313-1.085938 1.070313-2.207031 1.5-3.355469.800781-1.980469 1.742187-3.898438 2.828125-5.738281 1.34375-2.46875 3.285156-4.5625 5.648438-6.089844 4.328124-2.308594 9.242187-3.289063 14.125-2.824219 1.292968.085938 2.589843.085938 3.882812 0 .105469-1.222656.3125-2.433594.617188-3.621094.289062-10.410156 8.660156-18.78125 19.070312-19.066406 1.144531-.265625 2.734375-.53125 3.792969-.882812-.085938-.707032-.085938-2.382813-.175781-3.621094-.46875-4.921875.546874-9.871094 2.914062-14.210938 2.964844-3.925781 7.0625-6.851562 11.738281-8.386718 1.148438-.429688 2.269531-.929688 3.355469-1.5-.15625-1.277344-.394531-2.546875-.707031-3.796875-1.507813-4.632813-1.601563-9.613281-.261719-14.300781 2.183594-4.425782 5.621094-8.109376 9.886719-10.59375.96875-.703126 2.292969-1.585938 3.089843-2.292969-.355468-.617188-1.0625-2.207031-1.589843-3.355469-2.53125-4.253906-3.671875-9.191406-3.265625-14.125 1.179687-4.792969 3.761718-9.125 7.414062-12.445312zm-174.519531-29.75c10.332031-10.335938 27.089844-10.335938 37.425781 0 10.335938 10.335937 10.335938 27.09375 0 37.429687-10.335937 10.335937-27.09375 10.335937-37.425781 0-5-4.945313-7.8125-11.683594-7.8125-18.714844s2.8125-13.769531 7.8125-18.714843zm59.761719 126.5c-11.371094 4.535156-23.511719 6.8125-35.753906 6.707031-21.121094-.316407-41.839844-5.867188-60.292969-16.152344-4.191407-2.511719-5.554688-7.945313-3.042969-12.136719 2.511719-4.195312 7.945312-5.558594 12.136719-3.046875 15.796875 8.566407 33.410156 13.230469 51.378906 13.59375 9.9375.105469 19.800781-1.722656 29.039063-5.382812 4.535156-1.789063 9.664062.417969 11.476562 4.941406.890625 2.175781.871094 4.617187-.058594 6.777344-.929687 2.160156-2.691406 3.851562-4.882812 4.699219zm75.5625-66.738282c-1.347656 3.355469-4.59375 5.554688-8.207032 5.5625-1.121093.007813-2.230468-.199218-3.269531-.617187-4.507812-1.828125-6.710937-6.941407-4.941406-11.476563 15.800781-39.371094-7.945313-80.066406-8.210937-80.417968-2.511719-4.195313-1.148438-9.628907 3.046874-12.140626 4.191407-2.507812 9.625-1.144531 12.136719 3.046876 1.148438 1.941406 28.511719 48.464843 9.445313 96.042968zm0 0"/></svg>