<?xml version="1.0" encoding="iso-8859-1"?>
<!-- Generator: Adobe Illustrator 19.0.0, SVG Export Plug-In . SVG Version: 6.00 Build 0)  -->
<svg version="1.1" id="Capa_1" xmlns="http://www.w3.org/2000/svg" xmlns:xlink="http://www.w3.org/1999/xlink" x="0px" y="0px"
	 viewBox="0 0 512.01 512.01" style="enable-background:new 0 0 512.01 512.01;" xml:space="preserve">
<g>
	<g>
		<path d="M503.47,460.805h-8.533V232.419l16.171-32.333c1.323-2.645,1.186-5.786-0.375-8.303c-1.553-2.509-4.301-4.045-7.262-4.045
			h-128v-74.786l16.171-32.333c1.323-2.645,1.186-5.786-0.375-8.303c-1.553-2.509-4.301-4.045-7.262-4.045H298.67v-25.6
			c0-4.71-3.823-8.533-8.533-8.533s-8.533,3.823-8.533,8.533v25.6h-17.067V8.538c0-4.71-3.823-8.533-8.533-8.533
			c-4.71,0-8.533,3.823-8.533,8.533v59.733h-17.067v-25.6c0-4.71-3.823-8.533-8.533-8.533s-8.533,3.823-8.533,8.533v25.6h-85.333
			c-2.961,0-5.7,1.536-7.262,4.045c-1.553,2.517-1.698,5.658-0.375,8.303l16.171,32.333v74.786h-128c-2.961,0-5.7,1.536-7.262,4.045
			c-1.553,2.517-1.698,5.658-0.375,8.303l16.171,32.333v228.386H8.537c-4.71,0-8.533,3.823-8.533,8.533v34.133
			c0,4.71,3.823,8.533,8.533,8.533H503.47c4.71,0,8.533-3.823,8.533-8.533v-34.133C512.004,464.628,508.181,460.805,503.47,460.805z
			 M375.47,204.805h114.193l-8.533,17.067H375.47V204.805z M375.47,238.938h102.4v221.867h-102.4V238.938z M370.197,85.338
			l-8.533,17.067h-211.32l-8.533-17.067H370.197z M213.337,375.472v85.333H196.27v-85.333h-8.533c-4.71,0-8.533-3.823-8.533-8.533
			v-25.6c0-4.71,3.823-8.533,8.533-8.533h18.099c4.762-19.447,25.438-34.133,50.167-34.133s45.414,14.686,50.167,34.133h18.099
			c4.71,0,8.533,3.823,8.533,8.533v25.6c0,4.71-3.823,8.533-8.533,8.533h-8.533v85.333H298.67v-85.333H213.337z M281.604,418.138
			c0,4.71-3.823,8.533-8.533,8.533h-17.067c-4.71,0-8.533-3.823-8.533-8.533s3.823-8.533,8.533-8.533h17.067
			C277.781,409.605,281.604,413.428,281.604,418.138z M187.737,213.338c0-37.641,30.626-68.267,68.267-68.267
			c37.641,0,68.267,30.626,68.267,68.267c0,37.641-30.626,68.267-68.267,68.267C218.363,281.605,187.737,250.979,187.737,213.338z
			 M136.537,204.805v17.067H30.877l-8.533-17.067H136.537z M136.537,238.938v221.867h-102.4V238.938H136.537z M494.937,494.938
			H17.07v-17.067h8.533H145.07h59.733h102.4h59.733h119.467h8.533V494.938z"/>
	</g>
</g>
<g>
	<g>
		<path d="M256.003,162.138c-28.228,0-51.2,22.963-51.2,51.2c0,28.237,22.972,51.2,51.2,51.2c28.237,0,51.2-22.963,51.2-51.2
			C307.203,185.102,284.24,162.138,256.003,162.138z M273.07,221.872h-17.067c-4.71,0-8.533-3.823-8.533-8.533v-25.6
			c0-4.71,3.823-8.533,8.533-8.533c4.71,0,8.533,3.823,8.533,8.533v17.067h8.533c4.71,0,8.533,3.823,8.533,8.533
			C281.604,218.049,277.781,221.872,273.07,221.872z"/>
	</g>
</g>
<g>
	<g>
		<path d="M110.937,256.005h-51.2c-4.71,0-8.533,3.823-8.533,8.533v170.667c0,4.71,3.823,8.533,8.533,8.533h51.2
			c4.71,0,8.533-3.823,8.533-8.533V264.538C119.47,259.828,115.647,256.005,110.937,256.005z M102.404,426.672H68.27v-25.6h34.133
			V426.672z M102.404,341.338H68.27v-25.6h34.133V341.338z"/>
	</g>
</g>
<g>
	<g>
		<path d="M452.27,256.005h-51.2c-4.71,0-8.533,3.823-8.533,8.533v170.667c0,4.71,3.823,8.533,8.533,8.533h51.2
			c4.71,0,8.533-3.823,8.533-8.533V264.538C460.804,259.828,456.981,256.005,452.27,256.005z M443.737,426.672h-34.133v-25.6h34.133
			V426.672z M443.737,341.338h-34.133v-25.6h34.133V341.338z"/>
	</g>
</g>
<g>
	<g>
		<rect x="196.27" y="341.338" width="119.467" height="17.067"/>
	</g>
</g>
<g>
</g>
<g>
</g>
<g>
</g>
<g>
</g>
<g>
</g>
<g>
</g>
<g>
</g>
<g>
</g>
<g>
</g>
<g>
</g>
<g>
</g>
<g>
</g>
<g>
</g>
<g>
</g>
<g>
</g>
</svg>
