<?xml version="1.0" encoding="iso-8859-1"?>
<!-- Generator: Adobe Illustrator 19.0.0, SVG Export Plug-In . SVG Version: 6.00 Build 0)  -->
<svg version="1.1" id="Capa_1" xmlns="http://www.w3.org/2000/svg" xmlns:xlink="http://www.w3.org/1999/xlink" x="0px" y="0px"
	 viewBox="0 0 512 512" style="enable-background:new 0 0 512 512;" xml:space="preserve">
<g>
	<g>
		<g>
			<path d="M406.069,291.31v35.31c0,4.875-3.952,8.828-8.828,8.828c-4.875,0-8.828-3.952-8.828-8.828v-35.31H220.69v35.31
				c0,4.875-3.952,8.828-8.828,8.828c-4.875,0-8.828-3.952-8.828-8.828v-35.31H26.483v44.138
				c0.029,9.739,7.917,17.626,17.655,17.655h424.607c9.39-0.501,16.753-8.252,16.772-17.655V291.31H406.069z"/>
			<path d="M467.862,370.759H43.255c-9.39,0.501-16.753,8.252-16.772,17.655v26.483c0.029,9.739,7.917,17.626,17.655,17.655h52.966
				v-35.31c0-4.875,3.952-8.828,8.828-8.828s8.828,3.952,8.828,8.828v35.31h167.724v-35.31c0-4.875,3.952-8.828,8.828-8.828
				c4.875,0,8.828,3.952,8.828,8.828v35.31h168.607c9.39-0.501,16.753-8.252,16.772-17.655v-26.483
				C485.488,378.675,477.601,370.788,467.862,370.759z"/>
			<path d="M467.862,450.207h-61.793v35.31c0,4.875-3.952,8.828-8.828,8.828c-4.875,0-8.828-3.952-8.828-8.828v-35.31H220.69v35.31
				c0,4.875-3.952,8.828-8.828,8.828c-4.875,0-8.828-3.952-8.828-8.828v-35.31H43.255c-9.39,0.501-16.753,8.252-16.772,17.655V512
				h459.034v-44.138C485.488,458.123,477.601,450.236,467.862,450.207z"/>
			<path d="M388.414,282.483v8.828h8.828C392.366,291.31,388.414,287.358,388.414,282.483z"/>
			<path d="M88.276,26.483c0-4.875,3.952-8.828,8.828-8.828s8.828,3.952,8.828,8.828v247.172h17.655V79.448h52.966v8.828
				c0,4.875,3.952,8.828,8.828,8.828c4.875,0,8.828-3.952,8.828-8.828v-8.828h17.655v8.828c0,4.875,3.952,8.828,8.828,8.828
				c4.875,0,8.828-3.952,8.828-8.828v-8.828h17.655v44.668c-35.276,4.531-61.719,34.525-61.793,70.091v2.383
				c-5.457,3.151-8.821,8.971-8.828,15.272v61.793h158.897v-61.793c-0.006-6.301-3.371-12.121-8.828-15.272v-2.383
				c-0.074-35.566-26.517-65.56-61.793-70.091V79.448h17.655v8.828c0,4.875,3.952,8.828,8.828,8.828
				c4.875,0,8.828-3.952,8.828-8.828v-8.828h17.655v8.828c0,4.875,3.952,8.828,8.828,8.828c4.875,0,8.828-3.952,8.828-8.828v-8.828
				h52.966v194.207h17.655V26.483c0-4.875,3.952-8.828,8.828-8.828c4.875,0,8.828,3.952,8.828,8.828v247.172h17.655V26.483
				C441.379,11.857,429.523,0,414.897,0c-14.626,0-26.483,11.857-26.483,26.483h-52.966v-8.828c0-4.875-3.952-8.828-8.828-8.828
				c-4.875,0-8.828,3.952-8.828,8.828v8.828h-17.655v-8.828c0-4.875-3.952-8.828-8.828-8.828c-4.875,0-8.828,3.952-8.828,8.828
				v8.828h-17.655v-8.828c0-4.875-3.952-8.828-8.828-8.828c-4.875,0-8.828,3.952-8.828,8.828v8.828h-17.655v-8.828
				c0-4.875-3.952-8.828-8.828-8.828c-4.875,0-8.828,3.952-8.828,8.828v8.828h-17.655v-8.828c0-4.875-3.952-8.828-8.828-8.828
				c-4.875,0-8.828,3.952-8.828,8.828v8.828h-52.966C123.586,11.857,111.729,0,97.103,0S70.621,11.857,70.621,26.483v247.172h17.655
				V26.483z M317.793,44.138h17.655v17.655h-17.655V44.138z M282.483,44.138h17.655v17.655h-17.655V44.138z M317.793,247.172
				h-79.448c-4.875,0-8.828-3.952-8.828-8.828c0-4.875,3.952-8.828,8.828-8.828h79.448V247.172z M308.966,194.207H203.034
				c0.033-25.854,18.727-47.905,44.226-52.171c0.407,4.523,4.198,7.988,8.739,7.988c4.541,0,8.332-3.465,8.739-7.988
				C290.238,146.302,308.932,168.353,308.966,194.207z M247.172,44.138h17.655v17.655h-17.655V44.138z M211.862,44.138h17.655
				v17.655h-17.655V44.138z M176.552,44.138h17.655v17.655h-17.655V44.138z"/>
		</g>
	</g>
</g>
<g>
</g>
<g>
</g>
<g>
</g>
<g>
</g>
<g>
</g>
<g>
</g>
<g>
</g>
<g>
</g>
<g>
</g>
<g>
</g>
<g>
</g>
<g>
</g>
<g>
</g>
<g>
</g>
<g>
</g>
</svg>
