<svg id="Capa_1" enable-background="new 0 0 512 512" height="512" viewBox="0 0 512 512" width="512" xmlns="http://www.w3.org/2000/svg"><path d="m496 270h-40c-8.284 0-15-6.716-15-15s6.716-15 15-15h40c8.284 0 15 6.716 15 15s-6.716 15-15 15z"/><path d="m56 270h-40c-8.284 0-15-6.716-15-15s6.716-15 15-15h40c8.284 0 15 6.716 15 15s-6.716 15-15 15z"/><path d="m429.219 170.003c-5.184 0-10.226-2.69-13.004-7.503-4.143-7.174-1.685-16.349 5.49-20.49l34.641-20c7.174-4.144 16.348-1.685 20.49 5.49 4.143 7.174 1.685 16.349-5.49 20.49l-34.641 20c-2.362 1.364-4.941 2.013-7.486 2.013z"/><path d="m355.986 96.798c-2.545 0-5.124-.648-7.486-2.013-7.175-4.142-9.633-13.316-5.49-20.49l20-34.641c4.142-7.176 13.315-9.634 20.49-5.49 7.175 4.142 9.633 13.316 5.49 20.49l-20 34.641c-2.778 4.812-7.82 7.503-13.004 7.503z"/><path d="m256 70c-8.284 0-15-6.716-15-15v-40c0-8.284 6.716-15 15-15s15 6.716 15 15v40c0 8.284-6.716 15-15 15z"/><path d="m156.014 96.798c-5.184 0-10.226-2.69-13.004-7.503l-20-34.641c-4.143-7.174-1.685-16.349 5.49-20.49 7.175-4.143 16.348-1.685 20.49 5.49l20 34.641c4.143 7.174 1.685 16.349-5.49 20.49-2.362 1.364-4.941 2.013-7.486 2.013z"/><path d="m82.781 170.003c-2.545 0-5.124-.648-7.486-2.013l-34.641-20c-7.175-4.142-9.633-13.316-5.49-20.49 4.142-7.176 13.316-9.635 20.49-5.49l34.641 20c7.175 4.142 9.633 13.316 5.49 20.49-2.778 4.813-7.82 7.503-13.004 7.503z"/><path d="m496 270h-40c-8.284 0-15-6.716-15-15s6.716-15 15-15h40c8.284 0 15 6.716 15 15s-6.716 15-15 15z"/><path d="m429.219 170.003c-5.184 0-10.226-2.69-13.004-7.503-4.143-7.174-1.685-16.349 5.49-20.49l34.641-20c7.174-4.144 16.348-1.685 20.49 5.49 4.143 7.174 1.685 16.349-5.49 20.49l-34.641 20c-2.362 1.364-4.941 2.013-7.486 2.013z"/><path d="m355.986 96.798c-2.545 0-5.124-.648-7.486-2.013-7.175-4.142-9.633-13.316-5.49-20.49l20-34.641c4.142-7.176 13.315-9.634 20.49-5.49 7.175 4.142 9.633 13.316 5.49 20.49l-20 34.641c-2.778 4.812-7.82 7.503-13.004 7.503z"/><path d="m256 70c-8.284 0-15-6.716-15-15v-40c0-8.284 6.716-15 15-15s15 6.716 15 15v40c0 8.284-6.716 15-15 15z"/><path d="m156.014 96.798c-5.184 0-10.226-2.69-13.004-7.503l-20-34.641c-4.143-7.174-1.685-16.349 5.49-20.49 7.175-4.143 16.348-1.685 20.49 5.49l20 34.641c4.143 7.174 1.685 16.349-5.49 20.49-2.362 1.364-4.941 2.013-7.486 2.013z"/><path d="m134.75 280c18.64 0 33.75-15.11 33.75-33.75v10c0 18.151 14.33 32.949 32.293 33.713-6.194-9.851-9.793-21.492-9.793-33.963 0-28.677 18.958-53.009 45-61.121 6.005-1.871 12.387-2.879 19-2.879h48.5 67.5v-38.25c0-18.64-15.11-33.75-33.75-33.75s-33.75 15.11-33.75 33.75v-20c0-18.64-15.11-33.75-33.75-33.75s-33.75 15.11-33.75 33.75v20c0-18.64-15.11-33.75-33.75-33.75s-33.75 15.11-33.75 33.75v20c0-18.64-15.11-33.75-33.75-33.75-18.64 0-33.75 15.11-33.75 33.75v72.5c0 18.64 15.11 33.75 33.75 33.75z"/><path d="m366 222h-111c-18.778 0-34 15.222-34 34 0 18.778 15.222 34 34 34h83.54c-25.593 9.256-37.54 26.789-37.54 55 0 8.284-6.716 15-15 15s-15-6.716-15-15c0-8.926.952-17.266 2.816-25h-18.816c-9.415 0-18.353-2.06-26.411-5.727-8.033 3.667-16.946 5.727-26.339 5.727-15.893 0-30.435-5.86-41.611-15.515-7.917 3.534-16.674 5.515-25.889 5.515-12.388 0-23.954-3.564-33.75-9.704v69.982c0 30.094 15.109 57.441 40 73.423v53.299c0 8.284 6.716 15 15 15h200c8.284 0 15-6.716 15-15v-53.299c0-.001 0-.003 0-.005 24.889-15.981 40-43.325 40-73.418v-103.278c0-24.853-20.147-45-45-45z"/></svg>