<?xml version="1.0" encoding="iso-8859-1"?>
<!-- Generator: Adobe Illustrator 19.0.0, SVG Export Plug-In . SVG Version: 6.00 Build 0)  -->
<svg version="1.1" id="Capa_1" xmlns="http://www.w3.org/2000/svg" xmlns:xlink="http://www.w3.org/1999/xlink" x="0px" y="0px"
	 viewBox="0 0 512 512" style="enable-background:new 0 0 512 512;" xml:space="preserve">
<g>
	<g>
		<path d="M256,0C116.519,0,0,116.134,0,256c0,139.481,116.134,256,256,256c139.481,0,256-116.134,256-256
			C512,116.519,395.866,0,256,0z M96.901,415.099C11.255,329.454,7.845,197.225,86.639,107.852l56.46,56.46
			c-46.948,35.444-77.473,80.229-79.552,83.325c-3.396,5.058-3.396,11.667,0,16.726C67.02,269.534,149.814,391,256,391
			c31.771,0,61.444-10.878,87.529-26.258l60.619,60.619C314.775,504.154,182.547,500.744,96.901,415.099z M256,181
			c-15.264,0-29.47,4.594-41.33,12.458l-24.188-24.188C210.725,158.337,232.905,151,256,151
			c75.525,0,141.582,78.796,161.464,105.011c-11.083,14.646-36.532,45.669-70.025,70.214l-28.897-28.895
			C326.406,285.47,331,271.264,331,256C331,214.645,297.355,181,256,181z M236.61,215.398C242.486,212.581,249.061,211,256,211
			c24.813,0,45,20.187,45,45c0,6.939-1.581,13.514-4.398,19.389L236.61,215.398z M275.389,296.602
			C269.514,299.419,262.939,301,256,301c-24.813,0-45-20.187-45-45c0-6.939,1.581-13.514,4.398-19.389L275.389,296.602z
			 M193.458,214.67C185.594,226.53,181,240.736,181,256c0,41.355,33.645,75,75,75c15.264,0,29.47-4.594,41.33-12.458l24.188,24.188
			C301.275,353.663,279.095,361,256,361c-75.531,0-141.591-78.807-161.464-105.011c11.083-14.646,36.532-45.669,70.026-70.215
			L193.458,214.67z M425.361,404.149l-56.46-56.46c46.948-35.444,77.473-80.229,79.552-83.325c3.396-5.058,3.396-11.667,0-16.726
			C444.98,242.466,362.186,121,256,121c-31.771,0-61.444,10.879-87.529,26.258l-60.619-60.619
			C150.677,48.884,203.334,29.99,256,29.99c57.246,0,114.492,22.304,159.099,66.911
			C500.745,182.547,504.154,314.775,425.361,404.149z"/>
	</g>
</g>
<g>
</g>
<g>
</g>
<g>
</g>
<g>
</g>
<g>
</g>
<g>
</g>
<g>
</g>
<g>
</g>
<g>
</g>
<g>
</g>
<g>
</g>
<g>
</g>
<g>
</g>
<g>
</g>
<g>
</g>
</svg>
